<svg width="1148" height="678" viewBox="0 0 1148 678" fill="none" xmlns="http://www.w3.org/2000/svg">
<path d="M1102.76 151.611L1121.52 74.2192L1125.27 20.0449L948.899 43.2625L637.43 47.1321L142.081 20.0449L59.5233 0.697021L70.7811 252.22V554.049L44.5127 658.528L119.566 674.006L374.745 662.397L712.483 677.875L1147.79 670.136L1110.26 449.57L1102.76 151.611Z" fill="#EEE9DF"/>
<path d="M45.7409 147.05L26.9772 71.9971L23.2251 19.4602L199.599 41.976L511.068 45.7287L1006.42 19.4602L1088.97 0.697021L1077.72 244.619V537.325L1103.99 638.646L1028.93 653.656L773.753 642.398L436.015 657.409L0.708984 649.904L38.2354 436.003L45.7409 147.05Z" fill="url(#paint0_linear_462_275)"/>
<defs>
<linearGradient id="paint0_linear_462_275" x1="552.347" y1="0.697021" x2="552.347" y2="657.409" gradientUnits="userSpaceOnUse">
<stop stop-color="#FEFAF3"/>
<stop offset="1" stop-color="#ECE7DD"/>
</linearGradient>
</defs>
</svg>
