<svg width="274" height="95" viewBox="0 0 274 95" fill="none" xmlns="http://www.w3.org/2000/svg">
<g clip-path="url(#clip0_472_520)">
<path d="M38.7381 61.3184C45.685 63.8638 50.7758 67.5228 54.0106 72.2955C55.4955 74.1515 55.628 76.3788 54.4083 78.9772C53.5068 80.8333 52.2872 81.7348 50.7493 81.6817C49.4766 81.6287 48.5221 80.8598 47.8857 79.3749C46.7721 76.4583 45.4463 73.7008 43.9085 71.1023C35.848 74.2311 27.0451 76.803 17.4998 78.8181C16.4392 79.0302 15.8824 79.5075 15.8293 80.2499C15.7233 81.0984 15.3521 81.5492 14.7157 81.6022C14.0263 81.6552 13.3369 80.9658 12.6476 79.534C11.7461 77.678 10.8711 75.0265 10.0226 71.5796C11.7726 71.4205 12.9922 71.0493 13.6816 70.466C14.6892 69.6175 15.4846 68.6365 16.068 67.5228C17.5528 64.8183 18.5869 62.2464 19.1702 59.807H13.8407C12.515 59.807 10.3673 59.9131 7.39763 60.1252C6.28401 60.1782 5.48856 59.5949 5.0113 58.3752C4.69312 57.4737 4.53403 56.6253 4.53403 55.8298C6.8143 56.0419 9.91653 56.148 13.8407 56.148H16.943V39.5232C13.2839 42.3338 8.90897 44.8262 3.81813 47.0004C3.12875 47.3186 2.67799 47.2655 2.46588 46.8413C2.25376 46.4171 2.38633 46.0458 2.8636 45.7277C9.22715 40.902 14.4771 34.9892 18.6134 27.9893C19.6209 26.2393 20.549 24.5158 21.3974 22.8189H13.9203C12.5945 22.8189 10.4468 22.925 7.47717 23.1371C6.36355 23.1901 5.56811 22.5803 5.09084 21.3076C4.77266 20.4591 4.61357 19.6371 4.61357 18.8417C6.89385 19.0538 9.99608 19.1599 13.9203 19.1599H22.9883C24.4201 15.3948 25.2951 11.8418 25.6133 8.50091C29.0602 8.60697 32.1359 9.00469 34.8404 9.69407C36.2722 10.1713 36.9616 10.7547 36.9086 11.4441C36.9616 12.1865 36.5374 12.6637 35.6359 12.8758C34.6813 13.194 34.0185 13.7774 33.6473 14.6258C33.17 16.1637 32.6132 17.675 31.9768 19.1599H40.7267C46.8251 19.1599 49.5827 17.1978 48.9993 13.2736C52.2872 14.122 55.0182 15.7394 57.1924 18.1258C58.3591 19.4515 58.9424 20.5386 58.9424 21.3871C58.9424 22.3416 58.3591 22.8189 57.1924 22.8189H42.3176C46.8781 30.4021 53.4273 35.6786 61.9651 38.6482C62.3363 38.8603 62.4954 39.1255 62.4423 39.4437C62.3893 39.7618 62.1507 39.9474 61.7264 40.0005C59.0219 40.4247 56.8212 41.9891 55.1242 44.6936C54.594 45.436 53.8781 45.5156 52.9765 44.9322C49.4236 42.652 46.3479 38.5952 43.7494 32.7619C43.8555 33.0271 43.9085 33.2657 43.9085 33.4778C43.8555 34.3793 43.3252 34.8301 42.3176 34.8301H25.3747V39.5232H33.9654C37.6245 39.5232 39.2949 38.224 38.9767 35.6255C40.8858 36.3149 42.4237 37.349 43.5903 38.7278C44.6509 40.0005 45.1812 41.0346 45.1812 41.83C45.1282 42.7315 44.6244 43.1823 43.6699 43.1823H25.3747V48.114H34.5223C38.3404 48.114 40.0638 46.7617 39.6926 44.0572C41.7078 44.7466 43.3252 45.8072 44.5448 47.239C45.6585 48.5117 46.2153 49.5723 46.2153 50.4208C46.1622 51.3223 45.6585 51.773 44.7039 51.773H25.3747V56.148H40.4085C46.56 56.148 49.344 54.1594 48.7607 50.1822C52.1016 51.0306 54.8591 52.6745 57.0333 55.1139C58.2 56.3866 58.7833 57.4737 58.7833 58.3752C58.7833 59.3298 58.2 59.807 57.0333 59.807H30.3064C28.5034 62.6176 26.7004 65.057 24.8974 67.1251C23.3065 68.8751 22.0338 70.2008 21.0793 71.1023C27.4958 70.6781 34.7344 70.0417 42.7949 69.1933C41.151 66.6478 39.3479 64.288 37.3859 62.1138C37.1737 61.9017 37.1207 61.6631 37.2268 61.3979C37.4389 61.0797 37.9427 61.0532 38.7381 61.3184ZM40.2495 22.8189H30.3859C28.9011 25.8416 27.2042 28.6256 25.2951 31.1711H32.1359C35.9541 31.1711 37.704 29.7923 37.3859 27.0347C39.401 27.7772 41.0184 28.8643 42.2381 30.2961C42.7684 30.8794 43.1661 31.4362 43.4312 31.9665C42.2646 29.262 41.204 26.2128 40.2495 22.8189ZM124.392 44.0572H105.619V48.8299H116.199C120.282 48.8299 122.138 47.5307 121.767 44.9322C124.737 45.5686 127.202 47.0004 129.165 49.2276C129.801 49.917 130.119 50.6329 130.119 51.3753C130.119 52.1177 129.615 52.4889 128.608 52.4889H84.4606C83.4 52.4889 81.0402 52.595 77.3811 52.8071C76.4266 52.9662 75.7107 52.4624 75.2334 51.2958C74.7562 50.2352 74.5175 49.3072 74.5175 48.5117C78.2296 48.7769 81.544 48.8829 84.4606 48.8299H97.1877V44.0572H86.6878C85.7863 44.0572 83.8507 44.1633 80.8811 44.3754C79.9266 44.5345 79.2107 44.0307 78.7334 42.8641C78.2561 41.8035 78.0175 40.8755 78.0175 40.08C81.2523 40.3452 84.1424 40.4512 86.6878 40.3982H97.1877V35.6255H87.881C86.131 35.6255 84.381 35.7316 82.6311 35.9437C81.4644 36.0498 80.6955 35.6521 80.3243 34.7505C79.9531 33.743 79.7675 32.7089 79.7675 31.6483C82.2068 31.8604 84.9113 31.9665 87.881 31.9665H97.1877V27.5916H84.6992C82.1538 27.5916 79.2902 27.6976 76.1084 27.9097C75.1009 28.0158 74.3584 27.5385 73.8812 26.4779C73.4569 25.5234 73.2448 24.5689 73.2448 23.6143C76.0554 23.8265 79.8735 23.9325 84.6992 23.9325H97.1877V19.5576H93.6082C90.5325 19.5576 87.006 19.6636 83.0288 19.8758C82.0212 20.0879 81.2788 19.6902 80.8015 18.6826C80.3773 17.8341 80.1652 16.8 80.1652 15.5804C85.0969 15.7925 89.5779 15.8985 93.6082 15.8985H97.1877C97.0286 12.6637 96.79 10.0918 96.4718 8.18273C100.184 8.23576 103.445 8.66 106.256 9.45544C107.157 9.72059 107.608 10.1713 107.608 10.8077C107.608 11.338 107.316 11.7887 106.733 12.1599C105.991 12.6372 105.619 13.4592 105.619 14.6258V15.8985H109.597C112.513 15.8985 113.919 14.8114 113.812 12.6372C117.684 13.4857 120.627 14.7319 122.642 16.3758C123.172 16.8531 123.437 17.3834 123.437 17.9667C123.437 18.497 123.119 18.8947 122.483 19.1599C121.846 19.425 121.502 20.0879 121.449 21.1485V23.853C124.684 23.5878 126.115 22.4477 125.744 20.4326C127.282 20.8568 128.687 21.8113 129.96 23.2962C130.968 24.4098 131.471 25.4439 131.471 26.3984C131.471 27.1938 130.994 27.5916 130.04 27.5916H121.449V28.1484C121.449 30.0574 121.502 31.8074 121.608 33.3983C121.714 34.9362 120.865 36.1823 119.062 37.1369C121.343 37.8263 123.305 39.099 124.949 40.955C125.532 41.5914 125.824 42.2808 125.824 43.0232C125.824 43.7125 125.346 44.0572 124.392 44.0572ZM113.176 27.5916H105.619V31.9665H113.176V27.5916ZM113.176 19.5576H105.619V23.9325H113.176V19.5576ZM113.097 35.6255H105.619V40.3982H112.778C116.172 40.3982 117.949 39.4437 118.108 37.5346C116.888 37.9588 115.165 38.171 112.937 38.171C112.99 37.3755 113.044 36.527 113.097 35.6255ZM90.4264 56.3866H108.96C112.036 56.3866 113.494 55.22 113.335 52.8867C117.259 53.6291 120.468 54.9548 122.96 56.8639C123.649 57.3411 123.968 57.8449 123.915 58.3752C123.915 58.9055 123.596 59.3298 122.96 59.6479C122.059 60.0191 121.608 60.735 121.608 61.7956V70.5455C121.608 72.7728 121.661 74.9735 121.767 77.1477C121.926 78.5265 121.024 79.6401 119.062 80.4886C117.418 81.1779 115.35 81.5226 112.858 81.5226V76.8295H91.1423V77.1477C91.1423 78.7386 90.3734 79.8787 88.8355 80.5681C86.8734 81.4166 84.6197 81.8408 82.0742 81.8408C82.2864 78.7121 82.3924 74.9735 82.3924 70.6251V63.8638C82.3924 60.576 82.2599 57.0495 81.9947 53.2844C85.1235 53.8147 87.934 54.8488 90.4264 56.3866ZM112.858 68.5569H91.1423V73.1705H112.858V68.5569ZM112.858 60.0457H91.1423V64.8979H112.858V60.0457ZM141.956 79.8522C145.456 74.8144 147.842 68.4508 149.115 60.7616C149.751 56.5192 150.228 51.6935 150.546 46.2845H149.751C148.902 46.2845 147.391 46.3905 145.217 46.6027C144.209 46.7087 143.493 46.2845 143.069 45.3299C142.592 44.2694 142.353 43.2618 142.353 42.3073C145.429 42.5194 147.895 42.6254 149.751 42.6254H150.706C150.812 39.3906 150.865 35.9702 150.865 32.3642V29.0234H150.308C149.565 29.0234 148.24 29.1294 146.331 29.3415C145.323 29.4476 144.607 29.0234 144.183 28.0688C143.706 26.9552 143.467 25.9476 143.467 25.0461C146.331 25.2583 148.611 25.3643 150.308 25.3643H150.865V19.9553C150.865 16.5614 150.679 12.7433 150.308 8.50091C153.861 8.50091 157.016 8.8456 159.774 9.53499C161.205 9.95922 161.921 10.516 161.921 11.2054C161.921 11.8948 161.55 12.4516 160.808 12.8758C159.8 13.5122 159.296 14.5993 159.296 16.1372V25.1257C161.311 24.5424 162.186 23.1371 161.921 20.9098C163.565 21.9174 164.785 23.2962 165.58 25.0461C166.058 26.0007 166.296 26.8491 166.296 27.5916C166.296 28.5461 165.792 29.0234 164.785 29.0234H159.296V32.3642C159.296 35.9172 159.217 39.2846 159.058 42.4664C161.603 42.0421 162.743 40.5043 162.478 37.8528C164.281 38.8603 165.633 40.2921 166.535 42.1482C166.959 43.1557 167.198 44.0307 167.251 44.7731C167.251 45.7807 166.694 46.2845 165.58 46.2845H158.819C158.66 48.1935 158.474 50.0231 158.262 51.773C162.611 54.9548 165.633 58.2427 167.33 61.6365C168.02 63.0153 168.126 64.4206 167.648 65.8524C167.383 67.1251 166.773 68.2652 165.819 69.2728C164.811 70.3334 163.804 70.7576 162.796 70.5455C161.63 70.3334 160.967 69.591 160.808 68.3183C160.277 63.6517 159.217 59.5419 157.626 55.9889C157.096 58.9586 156.486 61.6896 155.796 64.182C153.41 72.7197 149.115 78.3674 142.91 81.1249C142.327 81.4431 141.903 81.4431 141.637 81.1249C141.372 80.7537 141.478 80.3295 141.956 79.8522ZM180.853 53.1253C180.641 69.5114 174.012 78.9772 160.967 81.5226C160.224 81.7878 159.774 81.6817 159.614 81.2045C159.455 80.8333 159.641 80.462 160.171 80.0908C167.755 75.4773 171.811 67.2047 172.342 55.273C171.016 55.6442 169.478 55.8298 167.728 55.8298C168.099 49.3602 168.285 42.8376 168.285 36.2619V22.978C168.285 20.1144 168.152 16.5084 167.887 12.1599C170.857 12.6372 173.641 13.7774 176.239 15.5804H183.876C187.269 15.5804 188.966 14.2281 188.966 11.5236C192.254 12.1599 195.171 13.6448 197.716 15.9781C198.353 16.5084 198.644 17.0122 198.591 17.4894C198.591 18.0727 198.273 18.5235 197.637 18.8417C196.682 19.2659 196.178 20.1144 196.125 21.3871V39.3641C196.125 42.3868 196.205 45.8072 196.364 49.6253C196.47 51.6405 195.887 52.9927 194.614 53.6821C193.447 54.3185 192.175 54.7692 190.796 55.0344V69.9092C190.796 70.9698 191.114 71.5531 191.75 71.6591C192.599 71.7652 193.474 71.7652 194.375 71.6591C195.277 71.5531 195.913 70.5455 196.284 68.6365C196.656 66.7804 196.974 64.5267 197.239 61.8752C197.292 61.3449 197.557 61.0797 198.034 61.0797C198.512 61.0797 198.777 61.3449 198.83 61.8752C198.989 63.8903 199.201 65.7729 199.466 67.5228C199.731 69.591 200.341 70.8902 201.296 71.4205C201.932 71.6857 202.224 72.1629 202.171 72.8523C202.224 74.8674 201.773 76.4053 200.818 77.4659C199.758 78.5795 198.114 79.2424 195.887 79.4545C193.553 79.6666 191.247 79.6666 188.966 79.4545C184.883 79.0302 182.841 76.4318 182.841 71.6591V53.1253H180.853ZM176.557 38.2505H187.694V30.6142H176.557V38.2505ZM176.557 26.9552H187.694V19.2394H176.557V26.9552ZM187.694 41.9095H176.557V49.4663H187.535C187.641 46.9739 187.694 44.455 187.694 41.9095ZM210.746 63.2274C214.511 53.6821 217.348 42.2808 219.257 29.0234C218.409 29.0234 217.003 29.1294 215.041 29.3415C214.034 29.4476 213.318 29.0234 212.894 28.0688C212.416 26.9552 212.178 25.9476 212.178 25.0461C215.2 25.2583 217.613 25.3643 219.416 25.3643H220.53V17.0917C220.53 13.4327 220.291 10.516 219.814 8.34182C224.003 8.34182 227.344 8.73954 229.837 9.53499C230.791 9.85316 231.268 10.3039 231.268 10.8872C231.268 11.4175 230.95 11.8683 230.314 12.2395C229.412 12.7698 228.962 13.5387 228.962 14.5463V25.1257C231.083 24.5424 232.011 23.031 231.746 20.5917C233.549 21.5992 234.874 23.031 235.723 24.887C236.2 25.8946 236.465 26.7696 236.518 27.512C236.518 28.5196 235.962 29.0234 234.848 29.0234H228.962L229.041 35.3869C232.435 36.9778 234.954 38.8338 236.598 40.955C237.446 42.1217 237.738 43.2618 237.473 44.3754C237.155 45.8072 236.571 46.8943 235.723 47.6367C234.715 48.4852 233.681 48.8034 232.621 48.5913C231.613 48.3261 231.083 47.6102 231.03 46.4436C230.871 43.1027 230.208 40.4512 229.041 38.4891L229.28 65.1365C229.28 68.4774 229.359 72.0038 229.518 75.7159C229.624 77.9962 228.962 79.534 227.53 80.3295C225.727 81.3901 223.314 81.9204 220.291 81.9204C220.662 74.5492 220.848 68.9546 220.848 65.1365L221.007 49.864C218.409 56.1745 215.439 60.8941 212.098 64.0229C211.568 64.5001 211.117 64.6327 210.746 64.4206C210.481 64.1555 210.481 63.7577 210.746 63.2274ZM234.212 36.9778C238.878 26.3719 241.318 16.8 241.53 8.26227C244.924 8.15622 247.867 8.50091 250.359 9.29635C251.579 9.66756 252.189 10.2244 252.189 10.9668C252.189 11.444 251.87 11.8153 251.234 12.0804C250.386 12.3986 249.829 12.9819 249.564 13.8304C249.086 15.3682 248.609 16.8531 248.132 18.2849H252.984C256.325 18.2318 258.207 16.8796 258.632 14.2281C262.238 15.2357 265.181 16.7735 267.461 18.8417C268.097 19.478 268.363 20.0614 268.257 20.5917C268.15 21.1219 267.753 21.4666 267.063 21.6257C266.162 21.7848 265.526 22.2621 265.154 23.0575C263.245 28.8908 260.753 33.8756 257.677 38.0119C261.866 40.3982 266.825 42.2277 272.552 43.5004C272.817 43.5535 272.95 43.7125 272.95 43.9777C273.003 44.1898 272.844 44.3754 272.472 44.5345C269.662 45.7012 267.7 47.6367 266.586 50.3412C266.268 51.0837 265.711 51.2958 264.916 50.9776C259.984 49.1746 255.821 46.7617 252.427 43.7391C248.768 47.0799 244.499 49.5988 239.621 51.2958C241.583 51.773 243.439 52.595 245.189 53.7617H253.382C256.935 53.7617 258.685 52.4624 258.632 49.864C262.45 50.8185 265.446 52.3564 267.62 54.4776C268.15 55.0078 268.363 55.5381 268.257 56.0684C268.257 56.4927 267.938 56.8374 267.302 57.1025C266.454 57.4737 266.003 58.2692 265.95 59.4888V69.9092C266.003 72.0303 266.082 74.2311 266.188 76.5113C266.294 78.0492 265.579 79.2954 264.041 80.2499C262.556 81.1514 260.382 81.6022 257.518 81.6022V75H245.507V76.75C245.507 78.7651 244.552 80.1439 242.643 80.8863C240.893 81.5226 238.931 81.8938 236.757 81.9999C236.916 79.9848 237.022 76.9886 237.075 73.0114V58.5343C237.022 56.0419 236.969 53.9207 236.916 52.1708C235.59 52.4889 234.238 52.7806 232.859 53.0458C232.117 53.2579 231.666 53.1783 231.507 52.8071C231.295 52.3829 231.481 51.9852 232.064 51.614C238.586 47.9549 243.863 43.633 247.893 38.6482C245.825 35.7846 244.234 32.5498 243.121 28.9438C240.893 32.5498 238.401 35.4399 235.643 37.6141C235.06 38.0384 234.636 38.1444 234.371 37.9323C234.052 37.7202 233.999 37.402 234.212 36.9778ZM245.507 57.4207V71.341H257.518V57.4207H245.507ZM251.393 33.5574C253.514 30.0044 255.052 26.1332 256.007 21.9439H246.7C246.117 23.2696 245.533 24.5158 244.95 25.6825C246.647 28.6521 248.795 31.2771 251.393 33.5574Z" fill="black"/>
</g>
<defs>
<clipPath id="clip0_472_520">
<rect width="274" height="95" fill="white"/>
</clipPath>
</defs>
</svg>
