<svg width="274" height="95" viewBox="0 0 274 95" fill="none" xmlns="http://www.w3.org/2000/svg">
<g clip-path="url(#clip0_472_522)">
<path d="M13.5225 31.8074V75.6364C13.5225 78.0227 12.7006 79.5871 11.0567 80.3295C9.46578 81.1249 7.45066 81.5226 5.0113 81.5226C5.3825 75.053 5.56811 68.5304 5.56811 61.9547V21.3076C5.56811 18.444 5.43553 14.8379 5.17038 10.4895C8.19307 10.9668 10.9771 12.1599 13.5225 14.069H17.1816C20.7346 14.069 22.458 12.7698 22.352 10.1713C26.011 11.1789 28.9011 12.7168 31.0223 14.7849C31.4996 15.3152 31.6852 15.819 31.5791 16.2963C31.5261 16.6675 31.2079 17.0122 30.6246 17.3303C29.7761 17.7015 29.3254 18.444 29.2723 19.5576V25.8416C29.3254 26.8491 29.4049 27.9097 29.511 29.0234C29.617 30.5082 28.9542 31.7279 27.5224 32.6824C26.833 33.1066 25.9845 33.4248 24.9769 33.6369C25.1891 33.743 25.3747 33.8225 25.5337 33.8756C26.4352 34.2468 26.886 34.6445 26.886 35.0687C26.833 35.546 26.5148 35.8111 25.9315 35.8642C25.5072 35.9172 25.1095 36.1028 24.7383 36.421C23.5716 38.0119 22.2989 39.6293 20.9202 41.2732C22.0338 41.2202 23.227 41.1141 24.4997 40.955C25.083 39.6823 25.6663 38.33 26.2496 36.8982C28.3708 37.1634 30.4125 37.7997 32.3746 38.8073C32.8518 39.0725 33.223 39.3376 33.4882 39.6028C34.7609 38.3831 35.7685 36.2354 36.5109 33.1597C35.4503 33.4248 34.3101 33.5574 33.0905 33.5574C33.3026 30.4286 33.4086 26.6901 33.4086 22.3416V21.7053C33.4086 18.4174 33.2761 14.891 33.0109 11.1259C35.9806 11.6562 38.6586 12.7433 41.0449 14.3872H46.4539C49.3705 14.3872 50.8289 13.0349 50.8289 10.3304C54.4349 11.1259 57.378 12.6107 59.6583 14.7849C60.2946 15.3152 60.5863 15.819 60.5333 16.2963C60.5333 16.8796 60.1621 17.3568 59.4196 17.7281C58.6242 18.0993 58.2 18.8947 58.1469 20.1144V57.3411C58.1469 61.0532 58.2795 65.8259 58.5447 71.6591C58.4916 74.4697 57.4045 76.6969 55.2833 78.3409C53.3743 79.7727 51.0675 80.4355 48.363 80.3295C47.3024 80.1704 46.7986 79.7196 46.8516 78.9772C46.7986 77.6515 46.2683 76.4848 45.2607 75.4773C44.5183 74.6818 43.5108 73.9924 42.2381 73.4091C41.5487 73.25 41.257 72.9318 41.3631 72.4546C41.4691 72.0303 41.7608 71.8182 42.2381 71.8182C44.7835 72.1894 46.7721 72.4016 48.2039 72.4546C49.4236 72.4016 50.0334 71.9243 50.0334 71.0228V52.9662C49.7683 53.8147 49.3175 54.5571 48.6812 55.1935C47.7266 56.095 46.7986 56.3866 45.8971 56.0684C45.2077 55.8033 44.863 55.0874 44.863 53.9207C44.757 53.1783 44.6509 52.4359 44.5448 51.6935C42.5828 52.4359 39.9843 53.3109 36.7495 54.3185C36.1662 54.5306 35.848 54.8753 35.795 55.3525V55.5912C37.2798 55.8033 38.6851 56.095 40.0108 56.4662C40.7532 56.6783 41.1244 57.023 41.1244 57.5002C41.1244 57.9245 40.9123 58.2692 40.4881 58.5343C39.9048 58.8525 39.6131 59.6214 39.6131 60.8411V66.0115H41.6017V61.7161C41.6017 59.9131 41.5222 58.2957 41.3631 56.8639C44.3858 56.9169 46.8251 57.2616 48.6812 57.898C49.3175 58.1631 49.6357 58.5343 49.6357 59.0116C49.6357 59.3828 49.344 59.6745 48.7607 59.8866C48.1243 60.1517 47.8062 60.7085 47.8062 61.557V65.6933C47.8062 66.1706 47.8592 66.6478 47.9653 67.1251C48.0713 68.3978 47.6206 69.3523 46.613 69.9887C45.3403 70.8372 43.6699 71.2614 41.6017 71.2614V69.5114H39.6131V69.9887C39.6131 71.9508 39.6661 73.7803 39.7722 75.4773C39.8782 77.1742 39.2949 78.4204 38.0222 79.2159C36.4844 80.2234 34.5488 80.7272 32.2155 80.7272C32.4276 78.606 32.5602 75.0265 32.6132 69.9887V61.9547C32.5602 60.576 32.5071 59.3298 32.4541 58.2161C32.295 58.3222 32.1359 58.4283 31.9768 58.5343C31.3405 58.8525 31.0223 59.4623 31.0223 60.3638V64.6592C31.0223 68.9546 30.0147 72.3485 27.9996 74.8409C25.4542 78.0757 21.53 80.1174 16.2271 80.9658C15.4316 81.0189 14.9809 80.8333 14.8748 80.409C14.8218 79.9848 15.1665 79.6401 15.9089 79.3749C18.3482 78.3674 20.3899 76.5909 22.0338 74.0455C22.7762 72.8258 23.333 71.3144 23.7042 69.5114H21.7952C21.6891 69.6175 21.583 69.7501 21.477 69.9092C20.9467 70.7576 20.0982 70.9963 18.9316 70.6251C17.3407 69.9887 15.9089 69.0607 14.6362 67.841C15.4846 67.0986 15.9089 66.2501 15.9089 65.2956V60.682C15.9089 59.4623 15.8293 58.2957 15.6702 57.1821C16.1475 57.1821 16.5983 57.2086 17.0225 57.2616C16.8104 57.0495 16.5983 56.7578 16.3861 56.3866C15.5907 55.0078 14.9013 53.47 14.318 51.773C15.4316 51.4018 16.4657 50.8981 17.4202 50.2617C19.2763 48.989 21.0793 46.9208 22.8292 44.0572C21.7156 44.4284 20.4694 44.8262 19.0906 45.2504C18.4543 45.4625 18.1361 45.8072 18.1361 46.2845C18.0831 46.7087 17.8445 46.9739 17.4202 47.0799C16.943 47.133 16.4922 46.7617 16.068 45.9663C15.3786 44.6406 14.7687 43.1823 14.2384 41.5914C15.193 41.3262 15.9884 40.902 16.6248 40.3187C18.1096 38.9399 19.2497 36.3945 20.0452 32.6824C20.4694 32.6824 20.8937 32.7089 21.3179 32.7619V31.8074H13.5225ZM24.1815 64.6592C24.1815 61.6896 24.0489 58.4548 23.7838 54.9548C25.3747 55.0078 26.939 55.1404 28.4769 55.3525C28.3178 55.0344 28.2383 54.6366 28.2383 54.1594C28.1852 53.523 28.1057 52.9132 27.9996 52.3299C26.0375 53.1783 23.2004 54.2389 19.4884 55.5116C18.905 55.7768 18.5869 56.148 18.5338 56.6253C18.5338 56.9434 18.4278 57.1821 18.2157 57.3411C19.8596 57.4472 21.3179 57.6858 22.5906 58.057C23.386 58.2692 23.7838 58.6139 23.7838 59.0911C23.7838 59.4623 23.5186 59.807 22.9883 60.1252C22.405 60.3904 22.1133 60.9472 22.1133 61.7956V66.0115H24.1019C24.155 65.5872 24.1815 65.1365 24.1815 64.6592ZM32.8518 53.3639C32.6397 54.1063 32.2685 54.7162 31.7382 55.1935C31.4731 55.4586 31.2079 55.6707 30.9428 55.8298H31.1018C31.5791 55.9359 31.9503 56.0684 32.2155 56.2275C32.2155 55.9094 32.189 55.6177 32.1359 55.3525C32.7193 55.3525 33.3026 55.3791 33.8859 55.4321C33.8329 55.326 33.7798 55.22 33.7268 55.1139C33.4086 54.5836 33.117 54.0003 32.8518 53.3639ZM50.0334 51.0571V40.3982C49.8213 40.6633 49.4766 40.7959 48.9993 40.7959C48.5221 40.849 48.0713 41.0346 47.6471 41.3527C46.5865 42.4133 45.4994 43.5004 44.3858 44.6141C46.8781 46.5231 48.5751 48.2466 49.4766 49.7844C49.7417 50.2087 49.9273 50.6329 50.0334 51.0571ZM50.0334 31.4097H40.4085C40.1434 31.7279 39.7987 31.993 39.3745 32.2051C40.382 32.4172 41.3631 32.7089 42.3176 33.0801C43.2191 33.4513 43.6699 33.849 43.6699 34.2733C43.6699 34.7505 43.3517 35.0157 42.7153 35.0687C42.2911 35.1218 41.8934 35.3074 41.5222 35.6255C40.4085 37.3225 39.1889 39.0725 37.8631 40.8755C38.7646 40.8224 39.7722 40.7694 40.8858 40.7164C41.4691 39.4967 42.0259 38.1444 42.5562 36.6596C44.6774 36.8717 46.7191 37.4816 48.6812 38.4891C49.3705 38.8073 49.8213 39.1255 50.0334 39.4437V31.4097ZM27.3633 45.5686C29.8026 47.3186 31.4731 48.9094 32.3746 50.3412C33.223 49.97 34.0185 49.5193 34.7609 48.989C36.3518 47.8754 37.8366 46.1519 39.2154 43.8186C38.2078 44.0838 37.0677 44.4019 35.795 44.7731C35.2116 44.9322 34.8935 45.2504 34.8404 45.7277C34.7874 46.2049 34.5488 46.4701 34.1245 46.5231C33.6473 46.5761 33.223 46.2049 32.8518 45.4095C32.2685 44.2959 31.7647 43.0497 31.3405 41.6709C31.2875 41.7239 31.2609 41.7505 31.2609 41.7505C29.9882 43.0232 28.689 44.2959 27.3633 45.5686ZM43.9085 49.3867C43.5903 48.3261 43.1926 47.292 42.7153 46.2845C41.3366 47.6102 39.9313 48.9625 38.4995 50.3412C40.1964 50.0761 41.9994 49.7579 43.9085 49.3867ZM50.0334 24.728H41.3631V27.7506H50.0334V24.728ZM50.0334 18.0462H41.3631V21.0689H50.0334V18.0462ZM21.3179 24.887H13.5225V28.1484H21.3179V24.887ZM21.3179 17.7281H13.5225V21.228H21.3179V17.7281ZM27.4428 50.1822C27.0716 49.0155 26.5943 47.9019 26.011 46.8413C24.4732 48.3261 22.8823 49.811 21.2383 51.2958C23.1474 51.0837 25.2156 50.7125 27.4428 50.1822ZM84.7788 19.6371C83.7712 15.5538 82.3129 12.1865 80.4038 9.53499C80.0856 9.11075 80.0061 8.76606 80.1652 8.50091C80.3773 8.23576 80.775 8.15622 81.3583 8.26227C85.7598 9.21681 89.0476 10.6751 91.2219 12.6372C92.5476 13.8039 93.0779 15.1296 92.8127 16.6144C92.4946 18.1523 91.7521 19.5045 90.5855 20.6712C89.5249 21.7848 88.3848 22.2356 87.1651 22.0235C85.8924 21.8113 85.0969 21.0159 84.7788 19.6371ZM115.244 54.9548C113.547 49.6519 111.267 45.2504 108.403 41.7505C108.138 41.3792 108.059 41.0611 108.165 40.7959C108.324 40.4777 108.722 40.3717 109.358 40.4777C114.926 42.1747 118.797 44.2694 120.971 46.7617C122.032 47.9814 122.403 49.5458 122.085 51.4549C121.926 52.8867 121.422 54.1063 120.574 55.1139C119.619 56.3336 118.559 56.8639 117.392 56.7048C116.278 56.5457 115.562 55.9624 115.244 54.9548ZM117.392 78.1022C113.627 70.9432 109.278 65.3486 104.347 61.3184C103.975 61.0002 103.843 60.682 103.949 60.3638C104.108 60.0457 104.506 59.8866 105.142 59.8866C112.46 61.3714 117.949 63.7047 121.608 66.8865C123.835 68.9016 124.737 71.1288 124.312 73.5682C124.312 75.053 123.915 76.4848 123.119 77.8636C122.324 79.1363 121.316 79.7992 120.096 79.8522C118.877 79.9052 117.975 79.3219 117.392 78.1022ZM77.3016 60.9206C78.6273 53.0723 79.2902 42.2542 79.2902 28.4665V25.9211C77.9645 25.9742 76.5857 26.0802 75.1539 26.2393C74.1994 26.3984 73.4835 25.8946 73.0062 24.728C72.5289 23.6674 72.2903 22.7394 72.2903 21.9439C74.7827 22.156 77.3811 22.2621 80.0856 22.2621H89.631C94.1385 22.2621 96.2066 20.406 95.8354 16.694C98.1157 17.3303 100.157 18.6296 101.96 20.5917C103.339 22.0235 104.028 23.2696 104.028 24.3302C104.028 25.3908 103.419 25.9211 102.199 25.9211H87.7219V28.4665C87.7219 31.3301 87.6689 34.0347 87.5628 36.5801C91.3279 36.5801 93.2635 35.0952 93.3695 32.1256C96.9225 32.9741 99.8922 34.5119 102.279 36.7392C102.809 37.2695 103.021 37.7998 102.915 38.33C104.771 33.0801 106.388 27.1408 107.767 20.5121C108.563 16.8 109.119 12.7698 109.438 8.42137C113.203 8.36833 116.57 8.8456 119.54 9.85316C120.494 10.1713 120.998 10.5956 121.051 11.1259C121.051 11.7092 120.68 12.1599 119.937 12.4781C119.089 12.7963 118.532 13.4592 118.267 14.4667C118.002 15.3682 117.737 16.2432 117.471 17.0917C120.812 27.0082 125.824 34.0081 132.505 38.0914C132.93 38.3566 133.115 38.5952 133.062 38.8073C133.062 39.0725 132.877 39.2581 132.505 39.3641C129.483 40.2656 127.043 41.9891 125.187 44.5345C124.551 45.436 123.915 45.489 123.278 44.6936C119.46 39.1255 116.915 31.8074 115.642 22.7394C111.241 35.2013 106.362 43.3148 101.006 47.0799C100.635 47.3451 100.316 47.5042 100.051 47.5572C99.8392 60.9206 99.1233 69.7501 97.9036 74.0455C96.1536 77.9697 93.2105 80.0113 89.0742 80.1704C87.4833 80.0113 86.7409 79.428 86.8469 78.4204C86.7939 76.9356 86.4227 75.7424 85.7333 74.8409C84.9909 73.8333 84.1159 73.0379 83.1083 72.4546C82.3659 72.0303 82.0477 71.6591 82.1538 71.341C82.2068 70.9698 82.525 70.8107 83.1083 70.8637C85.2295 71.1819 87.2181 71.341 89.0742 71.341C89.9757 71.1819 90.4794 70.466 90.5855 69.1933C91.434 63.36 91.8317 53.7086 91.7787 40.2391H87.4037C86.8734 50.3678 85.6272 58.6139 83.6651 64.9774C81.1197 73.4621 77.3811 79.0302 72.4494 81.6817C71.9191 81.9469 71.5214 81.9204 71.2562 81.6022C70.938 81.284 70.9911 80.9128 71.4153 80.4886C73.9607 75.7159 75.9228 69.1933 77.3016 60.9206ZM100.131 42.3073V45.3299C101.032 43.3148 101.907 41.1671 102.756 38.8869C102.544 39.152 102.199 39.3641 101.722 39.5232C100.767 40.0005 100.237 40.9285 100.131 42.3073ZM189.603 53.1253C186.262 66.86 178.811 75.6098 167.251 79.3749C166.455 79.6401 165.978 79.5871 165.819 79.2159C165.554 78.8977 165.686 78.553 166.217 78.1818C174.065 71.9243 179.156 63.5721 181.489 53.1253H180.614C176.531 63.0949 170.751 69.2728 163.274 71.6591C162.637 71.9243 162.213 71.9243 162.001 71.6591C161.736 71.2879 161.736 70.9698 162.001 70.7046C167.092 65.8789 170.698 60.0191 172.819 53.1253H171.864C168.895 58.004 165.342 61.2123 161.205 62.7502C160.516 63.1214 160.065 63.1744 159.853 62.9093C159.535 62.6441 159.535 62.3259 159.853 61.9547C163.353 57.1821 166.058 51.5874 167.967 45.1709C167.383 45.1709 166.535 45.2239 165.421 45.3299C165.368 45.6481 165.262 45.9663 165.103 46.2845C164.785 47.186 164.202 47.9549 163.353 48.5913C162.505 49.2276 161.683 49.4132 160.887 49.1481C159.933 48.7769 159.482 47.8489 159.535 46.364C159.588 43.8716 159.111 41.83 158.103 40.2391L158.342 65.6138C158.342 68.8486 158.421 72.2425 158.58 75.7954C158.686 78.0757 158.05 79.6136 156.671 80.409C154.974 81.4696 152.694 81.9999 149.831 81.9999C150.202 74.8409 150.387 69.3789 150.387 65.6138L150.546 50.5799C148.054 56.4662 145.243 60.8676 142.115 63.7842C141.584 64.2615 141.16 64.3941 140.842 64.182C140.577 63.9168 140.577 63.5191 140.842 62.9888C144.501 53.9207 147.259 43.0497 149.115 30.3756H148.956C148.213 30.3756 146.94 30.4817 145.137 30.6938C144.13 30.7998 143.414 30.3756 142.99 29.4211C142.512 28.3605 142.274 27.3529 142.274 26.3984C145.084 26.6105 147.312 26.7166 148.956 26.7166H149.91V18.1258C149.91 14.5728 149.671 11.7622 149.194 9.69407C153.224 9.69407 156.433 10.0653 158.819 10.8077C159.774 11.1789 160.251 11.6297 160.251 12.1599C160.251 12.6372 159.933 13.0615 159.296 13.4327C158.448 13.963 158.024 14.7054 158.024 15.6599V26.1598C159.508 25.5234 160.145 24.2242 159.933 22.2621C161.577 23.2696 162.796 24.6749 163.592 26.4779C164.069 27.3794 164.308 28.2014 164.308 28.9438C164.308 29.8983 163.804 30.3756 162.796 30.3756H157.944L158.024 37.296C160.516 38.5156 162.425 39.8944 163.751 41.4323C165.342 41.5383 166.853 41.5649 168.285 41.5118H186.103C190.027 41.5118 192.069 40.3187 192.228 37.9323C190.796 38.6747 188.807 39.0459 186.262 39.0459V36.6596H174.728C174.41 37.9854 173.508 38.9134 172.023 39.4437C170.379 40.08 168.47 40.4512 166.296 40.5573C166.455 38.5422 166.561 35.546 166.614 31.5688V19.2394C166.561 16.1637 166.482 13.5917 166.376 11.5236C169.345 11.7887 172.129 12.7963 174.728 14.5463H182.126C185.625 14.5463 187.296 13.4061 187.137 11.1259C190.637 11.7622 193.58 13.0349 195.966 14.944C196.55 15.4213 196.841 15.925 196.841 16.4553C196.788 16.9856 196.47 17.3834 195.887 17.6485C195.038 18.0197 194.587 18.7091 194.534 19.7167V29.9779C194.587 31.3567 194.694 32.7089 194.853 34.0346C194.906 35.2543 194.402 36.3149 193.341 37.2164C196.258 38.0119 198.697 39.4702 200.659 41.5914C201.402 42.3338 201.773 43.1292 201.773 43.9777C201.773 44.7731 201.19 45.1709 200.023 45.1709H175.603C175.02 46.7087 174.41 48.1405 173.773 49.4663H186.5C189.788 49.4663 191.432 48.1405 191.432 45.489C194.508 46.1784 197.186 47.4511 199.466 49.3072C200.156 49.8905 200.447 50.4208 200.341 50.8981C200.235 51.3753 199.864 51.7996 199.228 52.1708C198.538 52.4889 198.14 53.2048 198.034 54.3185C197.716 63.5456 197.106 69.8826 196.205 73.3296C195.144 77.625 191.803 79.8787 186.182 80.0908C185.228 80.0908 184.75 79.7196 184.75 78.9772C184.697 77.5454 184.247 76.2992 183.398 75.2386C182.762 74.4432 181.834 73.8068 180.614 73.3296C179.978 73.0644 179.713 72.7197 179.819 72.2955C179.925 71.8713 180.19 71.6857 180.614 71.7387C182.311 72.0038 183.982 72.1629 185.625 72.2159C187.428 72.269 188.516 71.5531 188.887 70.0682C189.523 67.1516 189.947 61.504 190.16 53.1253H189.603ZM186.262 27.512H174.887V33.0006H186.262V27.512ZM186.262 18.2053H174.887V23.853H186.262V18.2053ZM239.143 40.5573C242.007 30.2165 243.253 19.5311 242.882 8.50091C246.382 8.23576 249.511 8.39485 252.268 8.97817C253.488 9.24332 254.124 9.72059 254.177 10.41C254.177 10.8872 253.912 11.2584 253.382 11.5236C252.586 11.9478 252.109 12.4781 251.95 13.1145C251.42 17.0387 250.757 20.7242 249.961 24.1711H254.575C259.454 24.1711 261.681 22.3151 261.257 18.603C264.385 19.3985 266.904 20.8568 268.813 22.978C269.98 24.3037 270.563 25.4704 270.563 26.4779C270.563 27.3794 269.953 27.8302 268.734 27.8302H264.041C263.829 42.0951 261.548 53.2048 257.2 61.1593C261.389 66.3562 266.454 70.4129 272.393 73.3296C272.764 73.5417 272.923 73.7803 272.87 74.0455C272.87 74.3636 272.552 74.5492 271.916 74.6023C268.999 75.0795 266.613 76.7765 264.757 79.6931C264.173 80.5946 263.457 80.6742 262.609 79.9318C258.473 76.4848 255.079 72.5872 252.427 68.2387C247.602 74.072 241.45 78.553 233.973 81.6817C233.284 82.0529 232.833 82.106 232.621 81.8408C232.356 81.5757 232.382 81.2575 232.7 80.8863C239.435 75.6894 244.791 69.1137 248.768 61.1593C248.397 60.2578 248.052 59.3298 247.734 58.3752C245.825 53.0192 244.552 47.5572 243.916 41.9891C241.901 45.9133 239.568 49.2276 236.916 51.9321C236.439 52.4094 236.041 52.542 235.723 52.3299C235.405 52.1177 235.325 51.773 235.484 51.2958C236.704 48.2201 237.791 45.1178 238.746 41.9891C237.102 43.9512 234.768 46.0193 231.746 48.1935V69.8296C231.746 71.6326 231.799 73.5417 231.905 75.5568C232.011 77.625 231.374 79.1098 229.996 80.0113C228.352 81.1779 225.992 81.7613 222.916 81.7613C223.287 78.7916 223.473 74.8144 223.473 69.8296V53.4435C222.253 54.1329 220.954 54.8488 219.575 55.5912C218.727 56.0154 218.276 56.7048 218.223 57.6593C218.17 58.6139 217.799 59.1442 217.11 59.2502C216.367 59.4623 215.625 58.9055 214.882 57.5798C213.291 55.4586 212.045 52.8071 211.144 49.6253C215.439 48.5117 219.549 47.3186 223.473 46.0458V30.2961H220.212C218.78 36.5536 216.659 41.5118 213.848 45.1709C213.371 45.8072 212.947 46.0459 212.575 45.8868C212.257 45.7277 212.151 45.383 212.257 44.8527C213.371 39.3376 214.087 31.94 214.405 22.6598C214.405 19.9023 214.299 17.4629 214.087 15.3417C217.11 15.4478 219.788 15.7925 222.121 16.3758C222.863 16.5879 223.314 16.8531 223.473 17.1712V16.4553C223.473 13.4327 223.287 10.7812 222.916 8.50091C226.946 8.55394 230.208 9.00469 232.7 9.85316C233.549 10.1183 233.973 10.5425 233.973 11.1259C234.026 11.7092 233.734 12.1599 233.098 12.4781C232.196 12.9554 231.746 13.8039 231.746 15.0235V26.0007C233.39 25.2583 234.079 23.7734 233.814 21.5462C234.927 21.9174 236.121 22.9515 237.393 24.6484C238.613 26.2923 239.223 27.6976 239.223 28.8643C239.17 29.8188 238.666 30.2961 237.711 30.2961H231.746V43.0232C233.92 42.1747 236.015 41.2997 238.03 40.3982C238.56 40.1861 238.931 40.2391 239.143 40.5573ZM246.064 37.2164C247.283 42.9436 249.245 48.2996 251.95 53.2844C254.177 46.1784 255.344 37.6937 255.45 27.8302H249.086C248.185 31.2241 247.177 34.3528 246.064 37.2164ZM221.882 19.9553C221.617 22.2886 221.299 24.5158 220.928 26.637H223.473V17.9667C223.367 18.2318 223.128 18.444 222.757 18.603C222.28 18.8682 221.988 19.3189 221.882 19.9553Z" fill="black"/>
</g>
<defs>
<clipPath id="clip0_472_522">
<rect width="274" height="95" fill="white"/>
</clipPath>
</defs>
</svg>
