<svg width="274" height="95" viewBox="0 0 274 95" fill="none" xmlns="http://www.w3.org/2000/svg">
<g clip-path="url(#clip0_472_516)">
<path d="M29.5905 20.353C28.1587 16.2697 26.3027 12.9819 24.0224 10.4895C23.7042 10.1183 23.6247 9.80013 23.7838 9.53499C23.9429 9.26984 24.3406 9.16378 24.9769 9.21681C29.5375 9.69407 33.0109 10.8077 35.3972 12.5577C36.8821 13.6183 37.5715 14.9175 37.4654 16.4553C37.3063 18.0462 36.6965 19.478 35.6359 20.7507C34.6813 22.0234 33.5677 22.6333 32.295 22.5803C30.9693 22.4742 30.0678 21.7318 29.5905 20.353ZM15.4316 23.5348H39.1358C45.1812 23.5348 47.9122 21.6257 47.3289 17.8076C50.5637 18.603 53.2417 20.1939 55.3629 22.5803C56.5295 23.853 57.0863 24.9136 57.0333 25.762C57.0333 26.7166 56.4765 27.1938 55.3629 27.1938H35.795V46.6822C41.7873 46.6822 44.4918 44.7731 43.9085 40.955C47.1433 41.7505 49.8213 43.3413 51.9425 45.7277C53.0561 47.0004 53.6129 48.061 53.6129 48.9094C53.6129 49.864 53.0561 50.3412 51.9425 50.3412H35.795V73.25H41.6017C47.6471 73.25 50.4046 71.3144 49.8743 67.4433C53.1091 68.2387 55.8136 69.8561 57.9878 72.2955C59.1545 73.5682 59.7113 74.6288 59.6583 75.4773C59.6583 76.4318 59.1015 76.9091 57.9878 76.9091H13.443C12.0642 76.9091 9.83699 77.0151 6.76127 77.2272C5.64765 77.2803 4.85221 76.6969 4.37494 75.4773C4.05676 74.5758 3.89767 73.7273 3.89767 72.9318C6.23098 73.144 9.41275 73.25 13.443 73.25H27.0451V50.3412H17.8975C16.943 50.3412 15.3786 50.4473 13.2044 50.6594C12.0907 50.7125 11.2953 50.1291 10.818 48.9094C10.4999 48.0079 10.3408 47.1595 10.3408 46.364C12.1968 46.5761 14.7157 46.6822 17.8975 46.6822H27.0451V27.1938H15.4316C14.2119 27.1938 12.2763 27.2999 9.62487 27.512C8.51125 27.565 7.7158 26.9817 7.23854 25.762C6.92036 24.8605 6.76127 24.0121 6.76127 23.2166C8.88245 23.4287 11.7726 23.5348 15.4316 23.5348ZM72.2903 70.9432C75.7902 67.019 77.4607 63.7312 77.3016 61.0797C77.3546 60.5494 77.5402 60.2578 77.8584 60.2047C78.1235 60.1517 78.4682 60.4964 78.8925 61.2388C79.3697 62.4055 79.7675 64.182 80.0856 66.5683C80.5099 70.7576 79.7675 74.2841 77.8584 77.1477C77.2751 78.2083 76.4796 78.8446 75.4721 79.0568C74.5175 79.2159 73.563 78.8712 72.6085 78.0227C71.8661 77.3333 71.3623 76.4848 71.0971 75.4773C70.5138 73.9924 70.9115 72.4811 72.2903 70.9432ZM81.3583 72.375C82.1538 67.7084 82.0742 63.2274 81.1197 58.932C81.0667 58.6139 81.1727 58.3752 81.4379 58.2161C81.7561 58.057 82.1803 58.2957 82.7106 58.932C85.8924 62.6971 87.6424 66.4622 87.9605 70.2273C88.1727 71.9773 87.4037 73.4356 85.6537 74.6023C84.381 75.4508 83.2674 75.5568 82.3129 74.9205C81.5174 74.3902 81.1993 73.5417 81.3583 72.375ZM75.3925 28.3075C78.3622 23.0575 80.1122 16.4288 80.6425 8.42137C84.0894 8.52742 87.2446 9.16378 90.1082 10.3304C90.8506 10.6486 91.2219 11.0994 91.2219 11.6827C91.1688 12.213 90.7446 12.6372 89.9491 12.9554C89.0476 13.2205 88.4643 13.7243 88.1992 14.4667C85.4416 21.4666 82.3394 27.0082 78.8925 31.0915C81.0667 30.9324 83.1083 30.7733 85.0174 30.6142C86.5022 26.6901 87.2711 23.5878 87.3242 21.3076C89.9226 21.5197 92.309 21.9969 94.4832 22.7394C94.4301 20.6712 94.2976 18.2849 94.0854 15.5804C97.0551 16.1637 99.7861 17.5424 102.279 19.7167C111.028 16.6409 116.888 13.8569 119.858 11.3645C122.881 12.4251 125.346 13.8569 127.255 15.6599C128.051 16.3493 128.316 16.9591 128.051 17.4894C127.839 17.9667 127.441 18.1523 126.858 18.0462C125.797 17.8871 124.843 17.9667 123.994 18.2849C117.471 20.3 110.074 21.5727 101.801 22.103V26.637H116.835C119.593 26.637 120.892 25.6825 120.733 23.7734C123.968 24.3037 126.699 25.4439 128.926 27.1938C129.456 27.6711 129.721 28.0953 129.721 28.4665C129.668 28.9438 129.403 29.2885 128.926 29.5006C128.343 29.8188 128.024 30.4817 127.971 31.4892V35.9437C127.971 36.7922 128.024 37.6141 128.13 38.4096C128.183 39.8414 127.415 40.902 125.824 41.5914C124.339 42.2808 122.509 42.6254 120.335 42.6254V40.8755H101.801C101.748 41.883 101.722 42.8641 101.722 43.8186C103.472 44.2959 105.142 45.1974 106.733 46.5231H118.585C121.608 46.5231 123.04 45.2239 122.881 42.6254C126.168 43.686 128.767 45.1709 130.676 47.0799C130.994 47.4511 131.127 47.8223 131.074 48.1935C131.074 48.6178 130.755 48.989 130.119 49.3072C129.324 49.6784 128.899 50.4738 128.846 51.6935V66.8069C128.846 69.1933 128.899 71.5796 129.005 73.9659C128.952 75.875 128.263 77.4659 126.937 78.7386C125.612 80.0113 123.755 80.5416 121.369 80.3295C120.68 80.1704 120.388 79.8257 120.494 79.2954C120.494 77.9166 120.149 76.8295 119.46 76.0341C119.46 75.981 119.434 75.9545 119.381 75.9545C119.221 76.2727 118.983 76.5379 118.665 76.75C117.763 77.4394 116.49 77.7841 114.847 77.7841C115.006 75.7159 115.085 72.5872 115.085 68.3978V62.7502H113.017V69.1933C113.017 70.3599 113.044 71.9508 113.097 73.9659C113.15 75.7159 112.725 76.9091 111.824 77.5454C110.922 78.2348 109.65 78.5795 108.006 78.5795C108.165 76.5113 108.244 73.3826 108.244 69.1933V62.7502H106.415V76.5909C106.415 78.606 105.699 79.9583 104.267 80.6477C103.047 81.284 101.642 81.6552 100.051 81.7613C100.21 79.7461 100.316 76.75 100.369 72.7728V59.807C100.104 61.557 99.7861 63.2274 99.4149 64.8183C97.824 72.0303 94.9604 77.5454 90.8241 81.3635C90.2938 81.7348 89.8696 81.7878 89.5514 81.5226C89.2863 81.3105 89.2863 80.8863 89.5514 80.2499C90.9302 76.9091 91.9908 72.7993 92.7332 67.9206L92.5741 68.0796C91.7256 68.769 90.9037 68.9811 90.1082 68.716C89.3128 68.4508 88.8886 67.9206 88.8355 67.1251C88.3052 63.2539 87.2977 59.9396 85.8128 57.1821C85.6007 56.7578 85.5742 56.4131 85.7333 56.148C85.9454 55.8828 86.3431 55.8563 86.9265 56.0684C90.0552 57.7654 92.2559 59.5154 93.5286 61.3184C93.6347 60.4699 93.7142 59.6214 93.7673 58.7729C93.8733 57.3412 93.9794 55.8828 94.0854 54.398C93.9264 54.5571 93.7938 54.7162 93.6877 54.8753C92.7862 55.9889 91.7787 56.4927 90.665 56.3866C89.6575 56.3336 89.1272 55.5647 89.0742 54.0798C88.9681 52.8602 88.8355 51.6405 88.6764 50.4208C86.2901 52.1177 83.4795 53.8147 80.2447 55.5116C79.1841 55.9889 78.6008 56.6518 78.4948 57.5002C78.3887 58.1366 78.0175 58.5343 77.3811 58.6934C76.8508 58.7995 76.2145 58.3222 75.4721 57.2616C74.1994 55.1404 73.0857 52.542 72.1312 49.4663C73.6691 49.2541 75.0478 48.4322 76.2675 47.0004C78.0705 44.9853 79.9 42.0156 81.7561 38.0914C82.3394 36.8717 82.8697 35.7316 83.347 34.671C82.0742 35.3604 80.6955 36.0763 79.2107 36.8187C78.2561 37.2429 77.6993 37.8528 77.5402 38.6482C77.4342 39.2315 77.116 39.5762 76.5857 39.6823C76.1084 39.7353 75.5781 39.2846 74.9948 38.33C73.8281 36.368 72.8206 34.0612 71.9721 31.4097C73.2448 30.9854 74.385 29.9514 75.3925 28.3075ZM121.687 72.7728V62.7502H119.858V68.3978C119.858 69.5645 119.884 71.1554 119.937 73.1705V73.3296H121.131C121.502 73.3296 121.687 73.144 121.687 72.7728ZM115.085 59.0911V50.1822H113.017V59.0911H115.085ZM119.858 50.1822V59.0911H121.687V50.1822H119.858ZM108.244 59.0911V50.1822H106.415V59.0911H108.244ZM120.335 30.2961H101.801V37.2164H120.335V30.2961ZM94.4832 27.6711C92.2029 32.2316 89.8696 36.2619 87.4833 39.7618C87.4833 39.7618 87.5098 39.7884 87.5628 39.8414C90.5855 42.3868 92.7332 44.9853 94.0059 47.6367C94.112 47.8489 94.218 48.061 94.3241 48.2731C94.4301 44.8792 94.4832 41.2997 94.4832 37.5346V27.6711ZM88.1992 47.6367C87.7749 45.4625 87.1651 43.3413 86.3696 41.2732C84.3015 44.1368 82.2068 46.6027 80.0856 48.6708C82.7371 48.4057 85.4416 48.061 88.1992 47.6367ZM167.648 34.8301V24.2507H165.66C165.077 24.2507 164.44 24.3568 163.751 24.5689C162.743 24.6749 162.001 24.1977 161.524 23.1371C161.099 22.1825 160.887 21.228 160.887 20.2735C162.054 20.4856 163.645 20.5917 165.66 20.5917H167.648V17.6485C167.648 14.1486 167.436 11.391 167.012 9.3759C170.936 9.3759 174.065 9.7471 176.398 10.4895C177.353 10.8077 177.804 11.2319 177.751 11.7622C177.751 12.2395 177.459 12.6902 176.876 13.1145C176.027 13.5917 175.603 14.3076 175.603 15.2622V19.7962C176.876 19.1599 177.406 18.1523 177.194 16.7735C178.785 17.1978 180.269 18.1788 181.648 19.7167C182.709 20.9363 183.239 22.0234 183.239 22.978C183.239 23.8265 182.735 24.2507 181.728 24.2507H175.603V34.3528C177.406 33.7165 178.175 32.5233 177.91 30.7733C179.554 31.1976 181.118 32.2316 182.603 33.8756C183.716 35.0952 184.273 36.2089 184.273 37.2164C184.273 38.0649 183.743 38.4891 182.682 38.4891H164.705C164.228 38.4891 163.724 38.5422 163.194 38.6482C163.194 38.9134 163.061 39.2315 162.796 39.6028C161.417 41.7239 159.455 43.8716 156.91 46.0458V64.5001C156.963 67.3107 157.043 70.0948 157.149 72.8523C157.255 75.0265 156.38 76.8295 154.524 78.2613C152.88 79.5871 150.997 80.2499 148.876 80.2499C147.709 80.2499 147.099 79.7992 147.046 78.8977C146.993 77.7841 146.649 76.7765 146.012 75.875C145.429 75.0795 144.368 74.2311 142.831 73.3296C142.459 73.1174 142.353 72.7993 142.512 72.375C142.672 71.9508 143.043 71.8182 143.626 71.9773C145.058 72.2425 146.225 72.4016 147.126 72.4546C148.24 72.4546 148.796 71.9773 148.796 71.0228V51.8526C148.266 52.3299 147.948 52.9397 147.842 53.6821C147.736 54.3715 147.391 54.8222 146.808 55.0344C146.118 55.1935 145.323 54.5571 144.421 53.1253C143.255 51.4284 142.274 48.936 141.478 45.6481C143.918 45.0648 146.357 44.4019 148.796 43.6595V27.9893H148.399C147.762 27.9893 146.675 28.0953 145.137 28.3075C144.13 28.4135 143.414 27.9893 142.99 27.0347C142.512 25.9211 142.274 24.9136 142.274 24.0121C144.819 24.2242 146.861 24.3302 148.399 24.3302H148.796V16.6144C148.796 14.016 148.611 11.338 148.24 8.58045C152.217 8.63348 155.452 9.05772 157.944 9.85316C158.739 10.1713 159.137 10.5956 159.137 11.1259C159.137 11.7092 158.766 12.1334 158.024 12.3986C157.281 12.7168 156.91 13.5122 156.91 14.7849V23.6143C157.971 22.978 158.421 21.8909 158.262 20.353C159.694 21.3076 160.781 22.6068 161.524 24.2507C161.948 25.1522 162.16 25.9476 162.16 26.637C162.16 27.5385 161.709 27.9893 160.808 27.9893H156.91V40.5573C158.342 39.974 159.747 39.3111 161.126 38.5687C160.702 38.3566 160.357 37.9588 160.092 37.3755C159.667 36.421 159.455 35.4664 159.455 34.5119C160.728 34.724 162.478 34.8301 164.705 34.8301H167.648ZM185.148 61.7161V25.6825C185.254 19.2129 184.989 13.6448 184.353 8.97817C188.171 8.92514 191.538 9.34938 194.455 10.2509C195.781 10.6221 196.444 11.2584 196.444 12.1599C196.39 12.8493 195.913 13.4327 195.012 13.9099C193.898 14.4933 193.368 15.4478 193.421 16.7735V33.4778C197.239 35.493 199.943 37.4551 201.534 39.3641C202.754 40.7959 203.258 42.2012 203.046 43.58C202.887 44.6936 202.489 45.7277 201.853 46.6822C200.845 48.0079 199.731 48.5648 198.512 48.3526C197.61 48.1405 197.027 47.3451 196.762 45.9663C195.966 43.1027 194.853 40.4512 193.421 38.0119V64.1024C193.421 67.7615 193.527 71.5 193.739 75.3182C193.845 77.4394 193.182 78.9242 191.75 79.7727C189.894 80.8863 187.428 81.4431 184.353 81.4431C184.883 76.8295 185.148 71.0493 185.148 64.1024V63.4661C181.542 67.019 174.993 70.7576 165.501 74.6818C164.652 75 164.175 75.6098 164.069 76.5113C163.91 77.4128 163.512 77.9166 162.876 78.0227C162.186 78.1287 161.497 77.5189 160.808 76.1932C159.535 73.9659 158.607 71.2614 158.024 68.0796C161.311 67.6024 164.52 67.019 167.648 66.3297V54.0798H164.546C163.91 54.0798 163.167 54.1859 162.319 54.398C161.311 54.5041 160.569 54.0268 160.092 52.9662C159.667 52.0117 159.455 51.0571 159.455 50.1026C160.728 50.3147 162.425 50.4208 164.546 50.4208H167.648V48.1935C167.648 44.6936 167.436 41.9361 167.012 39.9209C170.936 39.9209 174.065 40.2921 176.398 41.0346C177.353 41.3527 177.804 41.777 177.751 42.3073C177.751 42.7845 177.459 43.2353 176.876 43.6595C176.027 44.1368 175.603 44.8527 175.603 45.8072V49.7844C177.035 49.1481 177.645 48.061 177.432 46.5231C179.023 46.9474 180.535 47.9549 181.966 49.5458C183.027 50.7655 183.584 51.8526 183.637 52.8071C183.584 53.6556 183.054 54.0798 182.046 54.0798H175.603V64.5001C178.785 63.7047 181.834 62.8032 184.75 61.7956C184.91 61.7426 185.042 61.7161 185.148 61.7161ZM233.018 51.614V40.955C233.018 39.2581 232.965 37.3755 232.859 35.3074C234.874 35.6255 236.863 36.368 238.825 37.5346C241.052 37.3755 242.086 36.421 241.927 34.671C244.791 35.3074 247.177 36.474 249.086 38.171C249.511 38.5952 249.696 38.9664 249.643 39.2846C249.59 39.7088 249.351 40.0005 248.927 40.1596C248.397 40.3717 248.079 40.955 247.973 41.9095V48.989C247.973 50.4208 248.026 51.8526 248.132 53.2844C248.132 54.7162 247.495 55.7768 246.223 56.4662C244.95 57.1555 243.412 57.5002 241.609 57.5002V54.398H239.143C238.931 55.4056 238.321 56.1745 237.314 56.7048C236.359 57.2351 234.848 57.6063 232.78 57.8184C232.939 55.4851 233.018 53.417 233.018 51.614ZM239.223 41.1936V50.739H241.609V41.1936H239.223ZM217.746 69.1933C219.231 64.6327 220.106 60.8676 220.371 57.898C223.606 58.2161 226.443 59.0116 228.882 60.2843C229.731 60.7085 230.075 61.2388 229.916 61.8752C229.757 62.3524 229.306 62.6441 228.564 62.7502C227.928 62.8562 227.397 63.2539 226.973 63.9433C226.602 64.7918 226.231 65.6138 225.859 66.4092C228.935 68.3183 231.056 70.1213 232.223 71.8182C233.018 73.0379 233.284 74.178 233.018 75.2386C232.7 76.2462 232.17 77.1212 231.427 77.8636C230.314 78.9772 229.2 79.3219 228.087 78.8977C227.291 78.5795 226.867 77.7575 226.814 76.4318C226.549 73.6212 225.859 71.0493 224.746 68.716C223.95 70.2008 223.155 71.5796 222.359 72.8523C219.708 76.8295 216.897 79.5605 213.928 81.0454C213.344 81.3635 212.92 81.3901 212.655 81.1249C212.39 80.8598 212.39 80.5151 212.655 80.0908C214.67 76.856 216.367 73.2235 217.746 69.1933ZM235.007 69.3523C236.121 65.0039 236.757 61.3714 236.916 58.4548C240.151 58.826 242.988 59.6214 245.427 60.8411C246.276 61.3184 246.62 61.8487 246.461 62.432C246.302 62.9623 245.852 63.2539 245.109 63.307C244.473 63.413 243.942 63.8108 243.518 64.5001C243.2 65.2956 242.908 66.091 242.643 66.8865C245.772 68.7425 247.973 70.4925 249.245 72.1364C250.253 73.4091 250.624 74.6288 250.359 75.7954C250.147 76.9091 249.67 77.8636 248.927 78.659C247.867 79.9318 246.753 80.409 245.586 80.0908C244.738 79.8257 244.208 79.0037 243.996 77.625C243.518 74.7614 242.643 72.1364 241.371 69.7501C240.84 70.8637 240.283 71.9243 239.7 72.9318C237.526 76.75 235.193 79.3749 232.7 80.8067C232.117 81.1249 231.693 81.1514 231.427 80.8863C231.162 80.6211 231.162 80.2764 231.427 79.8522C232.859 76.7765 234.052 73.2765 235.007 69.3523ZM222.121 24.4893C225.143 18.9212 227.026 13.7243 227.768 8.89863C231.215 9.21681 234.159 9.95922 236.598 11.1259C237.924 11.6562 238.507 12.319 238.348 13.1145C238.242 13.7508 237.738 14.1751 236.837 14.3872C235.988 14.5463 235.325 15.0501 234.848 15.8985C241.105 18.3909 245.639 21.175 248.45 24.2507C249.351 25.2052 249.749 26.2658 249.643 27.4325C249.484 28.7582 249.06 29.8983 248.37 30.8529C247.575 31.9135 246.647 32.4438 245.586 32.4438C244.473 32.4438 243.598 31.7013 242.961 30.2165C240.628 25.0196 237.658 20.7773 234.052 17.4894C231.931 21.6257 229.571 25.2848 226.973 28.4665C227.503 28.5196 228.007 28.5461 228.484 28.5461H230.473C234.079 28.5461 235.723 27.2203 235.405 24.5689C237.685 25.2583 239.488 26.531 240.814 28.387C241.45 29.2885 241.768 30.137 241.768 30.9324C241.768 31.7809 241.318 32.2051 240.416 32.2051H230.314C229.678 32.2051 228.458 32.3112 226.655 32.5233C225.806 32.6294 225.117 32.1786 224.587 31.1711C222.678 33.1862 220.742 34.9096 218.78 36.3414C219.947 36.7126 221.087 37.2164 222.2 37.8528C224.428 37.6937 225.462 36.7392 225.303 34.9892C228.113 35.6255 230.446 36.7922 232.302 38.4891C232.727 38.9134 232.912 39.2846 232.859 39.6028C232.806 40.027 232.568 40.3187 232.143 40.4777C231.613 40.6899 231.295 41.2467 231.189 42.1482V49.1481C231.189 50.5268 231.242 51.9056 231.348 53.2844C231.348 54.7162 230.738 55.7768 229.518 56.4662C228.246 57.1555 226.734 57.5002 224.984 57.5002V54.8753H222.916C222.757 55.9889 222.121 56.8374 221.007 57.4207C220 57.898 218.409 58.2427 216.235 58.4548C216.394 56.1215 216.473 54.0533 216.473 52.2503V41.4323C216.473 40.3717 216.447 39.205 216.394 37.9323C215.174 38.7278 213.954 39.3906 212.735 39.9209C212.098 40.1331 211.647 40.1065 211.382 39.8414C211.17 39.5232 211.25 39.152 211.621 38.7278C215.863 34.3263 219.363 29.5802 222.121 24.4893ZM222.996 41.5118V51.2162H224.984V41.5118H222.996ZM250.2 26.0802C250.094 23.2696 249.935 21.0689 249.723 19.478C252.639 19.5311 255.264 19.9023 257.598 20.5917C258.34 20.8038 258.711 21.1485 258.711 21.6257C258.711 22.05 258.499 22.3947 258.075 22.6598C257.492 22.978 257.2 23.7469 257.2 24.9666V51.9321C257.2 53.8942 257.253 55.7237 257.359 57.4207C257.465 59.1176 256.882 60.3638 255.609 61.1593C254.071 62.1668 252.136 62.6706 249.802 62.6706C250.014 60.5494 250.147 56.9699 250.2 51.9321V26.0802ZM259.507 19.5576C259.507 16.3228 259.215 13.2205 258.632 10.2509C262.45 10.1979 265.738 10.5956 268.495 11.4441C269.609 11.7092 270.192 12.213 270.245 12.9554C270.245 13.5917 269.768 14.122 268.813 14.5463C267.965 14.9175 267.567 15.819 267.62 17.2508V61.0797C267.62 64.2615 267.673 67.6024 267.779 71.1023C268.097 73.8599 267.143 76.0341 264.916 77.625C262.901 79.1098 260.488 79.9848 257.677 80.2499C256.617 80.356 256.06 80.0113 256.007 79.2159C256.007 77.4659 255.609 76.1932 254.814 75.3977C253.859 74.4432 252.401 73.6212 250.439 72.9318C249.961 72.7728 249.749 72.4811 249.802 72.0569C249.855 71.5796 250.173 71.341 250.757 71.341C253.302 71.6591 255.423 71.8447 257.12 71.8978C258.711 71.8978 259.507 71.1288 259.507 69.591V19.5576Z" fill="black"/>
</g>
<defs>
<clipPath id="clip0_472_516">
<rect width="274" height="95" fill="white"/>
</clipPath>
</defs>
</svg>
