<svg width="274" height="95" viewBox="0 0 274 95" fill="none" xmlns="http://www.w3.org/2000/svg">
<g clip-path="url(#clip0_472_518)">
<path d="M21.2383 48.6708C30.7306 41.9361 37.651 33.5839 41.9994 23.6143H25.8519C24.6322 25.6825 23.386 27.6181 22.1133 29.4211C25.5603 30.6938 28.0261 32.1521 29.511 33.796C30.8897 35.2808 31.0488 37.0839 29.9882 39.205C29.617 40.0535 29.0337 40.8224 28.2383 41.5118C27.5489 42.0951 26.8065 42.3603 26.011 42.3073C24.4732 42.1482 23.5451 41.1936 23.227 39.4437C22.4315 36.5801 21.3709 34.1142 20.0452 32.046C15.4316 37.5611 10.5529 41.4323 5.40902 43.6595C4.77266 43.8716 4.34843 43.8451 4.13631 43.58C3.92419 43.2618 3.97722 42.9171 4.2954 42.5459C9.17412 37.5611 13.2574 31.94 16.5452 25.6825C20.1512 18.6826 22.2459 12.8758 22.8292 8.26227C26.5413 8.63348 29.8291 9.50847 32.6927 10.8872C33.6473 11.4706 34.0185 12.1069 33.8064 12.7963C33.6473 13.3796 33.1435 13.7243 32.295 13.8304C31.5526 13.8834 30.9162 14.3076 30.3859 15.1031C29.5905 16.8 28.7685 18.4174 27.9201 19.9553H38.7381C42.2911 19.9553 44.0676 18.497 44.0676 15.5804C47.5145 16.5349 50.5637 18.0993 53.2152 20.2735C54.2227 21.1219 54.7 21.8378 54.647 22.4212C54.5409 23.0575 54.0106 23.5348 53.0561 23.853C51.9955 24.1181 51.0145 24.887 50.113 26.1598C45.2873 36.2884 38.3669 44.2694 29.3519 50.1026H40.8063C44.4123 50.1026 46.1622 48.8034 46.0562 46.2049C49.9804 47.1595 53.0826 48.6973 55.3629 50.8185C55.9462 51.3488 56.1583 51.8791 55.9992 52.4094C55.9992 52.8336 55.6811 53.2048 55.0447 53.523C54.1962 53.9473 53.7455 54.7692 53.6924 55.9889V67.841C53.7455 70.3864 53.825 73.0379 53.9311 75.7954C54.0371 77.2803 53.2947 78.5 51.7038 79.4545C50.166 80.356 47.9122 80.8067 44.9426 80.8067V74.4432H25.2951V76.75C25.2951 78.3409 24.5262 79.481 22.9883 80.1704C21.0793 81.0189 18.8785 81.4431 16.3861 81.4431C16.5983 78.3143 16.7043 74.5758 16.7043 70.2273V56.3866C12.462 57.9775 7.92792 59.2502 3.10223 60.2047C2.25376 60.3108 1.80301 60.1517 1.74998 59.7275C1.64392 59.3032 1.96209 58.932 2.70451 58.6139C7.74232 56.5987 12.3559 54.3185 16.5452 51.773C16.4922 50.3412 16.4127 48.8564 16.3066 47.3186C18.0566 47.6367 19.7005 48.0875 21.2383 48.6708ZM44.9426 53.7617H25.2951V70.7841H44.9426V53.7617ZM122.562 71.1023C116.517 66.7009 112.752 59.4888 111.267 49.4663C110.419 49.8375 109.57 50.1822 108.722 50.5003C110.525 56.7578 110.949 63.9964 109.994 72.2159C108.987 77.5719 105.222 80.1439 98.699 79.9318C97.2672 79.9848 96.5513 79.5871 96.5513 78.7386C96.5513 77.4659 95.968 76.3523 94.8013 75.3977C93.7408 74.6023 92.5211 73.9659 91.1423 73.4887C90.559 73.3296 90.2938 73.0114 90.3469 72.5341C90.4529 72.0569 90.7711 71.8447 91.3014 71.8978C94.9074 72.1629 97.5589 72.2425 99.2558 72.1364C100.847 72.0303 101.748 71.2879 101.96 69.9092C102.332 67.1516 102.517 64.2085 102.517 61.0797C100.131 62.9888 97.3468 64.8448 94.165 66.6478C88.0666 69.9357 81.8621 72.2425 75.5516 73.5682C74.7562 73.7273 74.2789 73.5947 74.1198 73.1705C74.0138 72.7462 74.2789 72.4016 74.9153 72.1364C80.7485 69.3258 85.9984 66.2236 90.665 62.8297C94.8544 59.6479 98.593 55.9624 101.881 51.773C101.722 50.6594 101.536 49.5988 101.324 48.5913C99.0437 50.7125 96.2862 52.7806 93.0514 54.7957C87.9075 57.8714 82.578 60.0987 77.063 61.4775C76.2675 61.6896 75.7902 61.557 75.6312 61.0797C75.5251 60.7085 75.7902 60.3638 76.4266 60.0457C81.3053 57.3412 85.6803 54.398 89.5514 51.2162C93.0514 48.2996 96.1271 44.8792 98.7786 40.955C98.5134 40.4247 98.2483 39.8944 97.9831 39.3641C92.5211 45.0383 85.7863 48.6973 77.7789 50.3412C77.0364 50.4473 76.6122 50.3412 76.5061 50.0231C76.294 49.6519 76.4001 49.3337 76.8243 49.0685C84.0363 44.7731 89.6044 39.7088 93.5286 33.8756H90.1878C89.5514 33.8756 88.2522 33.9816 86.2901 34.1937C85.3356 34.3528 84.6197 33.849 84.1424 32.6824C83.6651 31.6218 83.4265 30.6938 83.4265 29.8983C85.9189 30.1635 88.1727 30.2695 90.1878 30.2165H104.744C109.093 30.2165 111.055 28.7582 110.631 25.8416C113.176 26.3719 115.377 27.3794 117.233 28.8643C117.922 27.0613 118.373 25.5234 118.585 24.2507H84.6992C84.5401 26.7431 84.0098 28.7582 83.1083 30.2961C81.8886 32.2582 80.4568 33.0801 78.8129 32.7619C77.5933 32.5498 76.5857 31.8339 75.7902 30.6142C74.9948 29.4476 74.6501 28.3075 74.7562 27.1938C74.9153 25.8151 75.8168 24.5424 77.4607 23.3757C80.4834 21.2545 82.1538 19.0803 82.472 16.8531C82.578 16.2167 82.8432 15.8985 83.2674 15.8985C83.6917 15.8985 83.9568 16.1637 84.0629 16.694C84.328 18.0727 84.5136 19.372 84.6197 20.5917H99.4149C99.0967 20.2204 98.8581 19.7432 98.699 19.1599C97.6915 15.6599 96.2862 12.7698 94.4832 10.4895C94.165 10.1183 94.0854 9.77362 94.2445 9.45544C94.4036 9.19029 94.8013 9.11075 95.4377 9.21681C99.574 9.64104 102.756 10.6221 104.983 12.1599C106.309 13.1145 106.945 14.2811 106.892 15.6599C106.627 17.2508 105.938 18.6826 104.824 19.9553C104.612 20.1674 104.4 20.3795 104.188 20.5917H114.369C118.506 20.5917 120.521 19.0803 120.415 16.0576C124.233 17.2773 127.202 19.2129 129.324 21.8644C129.907 22.5537 130.093 23.1901 129.88 23.7734C129.668 24.3037 129.218 24.5689 128.528 24.5689C127.786 24.5158 127.017 24.7014 126.221 25.1257C123.57 27.565 121.184 29.3946 119.062 30.6142C119.593 31.3036 119.858 31.993 119.858 32.6824C119.858 33.4778 119.301 33.8756 118.187 33.8756H102.358C101.616 35.0422 100.82 36.1293 99.9717 37.1369C103.419 39.7353 106.017 43.2088 107.767 47.5572C112.009 43.4209 114.847 39.5762 116.278 36.0233C119.142 37.1899 121.475 38.5952 123.278 40.2391C124.18 41.0346 124.524 41.7239 124.312 42.3073C124.1 42.7845 123.596 42.9966 122.801 42.9436C122.006 42.8906 121.21 43.1823 120.415 43.8186C118.028 45.6746 115.722 47.2125 113.494 48.4322C117.047 55.4321 122.934 60.7616 131.153 64.4206C131.471 64.5797 131.604 64.7918 131.551 65.057C131.498 65.3221 131.286 65.5077 130.914 65.6138C127.68 66.4622 125.32 68.2387 123.835 70.9432C123.517 71.4205 123.093 71.4735 122.562 71.1023ZM150.069 70.8637V53.7617L149.512 54.0798C148.505 54.6101 147.948 55.4321 147.842 56.5457C147.789 57.2881 147.444 57.7389 146.808 57.898C146.118 58.1101 145.296 57.5002 144.342 56.0684C143.069 54.3185 141.982 51.7465 141.081 48.3526C144.103 47.5042 147.099 46.5496 150.069 45.489V29.262H149.115C148.372 29.262 147.046 29.368 145.137 29.5802C144.13 29.6862 143.414 29.262 142.99 28.3075C142.512 27.1938 142.274 26.1863 142.274 25.2848C145.137 25.4969 147.418 25.6029 149.115 25.6029H150.069V17.4894C150.069 14.7849 149.857 12.0009 149.433 9.13726C153.569 9.19029 156.936 9.64104 159.535 10.4895C160.436 10.8077 160.861 11.2319 160.808 11.7622C160.861 12.3456 160.463 12.7963 159.614 13.1145C158.872 13.4327 158.501 14.2546 158.501 15.5804V25.2052C160.145 24.5689 160.861 23.1901 160.649 21.0689C162.345 22.0765 163.618 23.4818 164.467 25.2848C164.891 26.2393 165.103 27.0878 165.103 27.8302C165.103 28.7847 164.599 29.262 163.592 29.262H158.501V41.9095C160.516 40.955 162.505 39.9209 164.467 38.8073C164.944 38.5422 165.289 38.5422 165.501 38.8073C165.766 39.1785 165.686 39.6293 165.262 40.1596C163.618 42.652 161.364 45.1178 158.501 47.5572V64.0229C158.554 66.9395 158.633 69.8296 158.739 72.6932C158.899 74.9735 158.024 76.8826 156.115 78.4204C154.471 79.7992 152.535 80.5151 150.308 80.5681C149.141 80.6211 148.531 80.1704 148.478 79.2159C148.372 78.1022 147.868 77.0947 146.967 76.1932C146.225 75.3447 144.793 74.4962 142.672 73.6477C142.247 73.4356 142.115 73.1174 142.274 72.6932C142.38 72.269 142.725 72.0834 143.308 72.1364C145.27 72.4546 146.887 72.6402 148.16 72.6932C149.433 72.6932 150.069 72.0834 150.069 70.8637ZM183.478 20.9098C182.947 16.8796 181.887 13.5122 180.296 10.8077C180.031 10.3835 180.004 10.0388 180.216 9.77362C180.429 9.50847 180.826 9.48195 181.41 9.69407C185.44 11.1789 188.33 12.9819 190.08 15.1031C191.141 16.3758 191.459 17.7015 191.034 19.0803C190.61 20.406 189.815 21.5462 188.648 22.5007C187.535 23.4022 186.447 23.6939 185.387 23.3757C184.273 23.0575 183.637 22.2356 183.478 20.9098ZM167.012 72.9318V35.546C165.792 36.8717 164.52 37.9854 163.194 38.8869C162.664 39.2581 162.239 39.2846 161.921 38.9664C161.656 38.7543 161.656 38.4096 161.921 37.9323C166.853 28.9703 169.77 19.3189 170.671 8.97817C173.906 9.24332 176.743 9.85316 179.182 10.8077C180.243 11.2319 180.747 11.7357 180.694 12.319C180.641 12.7433 180.349 13.0615 179.819 13.2736C179.076 13.5387 178.573 13.963 178.307 14.5463C177.194 17.8871 176.001 20.9363 174.728 23.6939C174.993 23.853 175.258 24.0121 175.523 24.1711H185.864C190.743 24.1711 192.97 22.3947 192.546 18.8417C195.144 19.5841 197.265 20.9894 198.909 23.0575C199.917 24.2772 200.421 25.3378 200.421 26.2393C200.421 27.2999 199.864 27.8302 198.75 27.8302H189.603V39.205C191.83 38.5156 192.784 37.0308 192.466 34.7505C194.906 35.493 196.894 36.8452 198.432 38.8073C199.334 39.9209 199.784 40.9285 199.784 41.83C199.784 42.8376 199.307 43.3413 198.353 43.3413H189.603V55.273C191.989 54.6366 193.023 53.1253 192.705 50.739C195.144 51.4814 197.133 52.8336 198.671 54.7957C199.572 55.9094 200.023 56.9169 200.023 57.8184C200.023 58.826 199.546 59.3298 198.591 59.3298H189.603V72.8523C192.572 72.269 193.898 70.572 193.58 67.7615C196.178 68.5039 198.326 69.9092 200.023 71.9773C200.978 73.197 201.455 74.2576 201.455 75.1591C201.455 76.2197 200.898 76.75 199.784 76.75H175.285C175.285 78.9772 174.383 80.409 172.58 81.0454C170.989 81.5757 169.027 81.8673 166.694 81.9204C166.906 78.4734 167.012 75.4773 167.012 72.9318ZM175.285 59.3298V73.0909H181.33V59.3298H175.285ZM175.285 43.3413V55.6707H181.33V43.3413H175.285ZM175.285 27.8302V39.6823H181.33V27.8302H175.285ZM224.348 71.0228C227.901 68.7425 229.916 66.5418 230.393 64.4206C230.553 63.9433 230.791 63.7047 231.109 63.7047C231.374 63.7047 231.666 64.1024 231.984 64.8979C232.249 65.8524 232.382 67.3107 232.382 69.2728C232.329 72.6667 231.374 75.4242 229.518 77.5454C228.67 78.606 227.662 79.1363 226.496 79.1363C225.382 79.1363 224.401 78.553 223.553 77.3863C222.863 76.4848 222.492 75.4508 222.439 74.2841C222.333 73.0114 222.969 71.9243 224.348 71.0228ZM235.246 75.4773C235.352 71.5531 234.874 68.1062 233.814 65.1365C233.655 64.6592 233.681 64.3145 233.893 64.1024C234.159 63.8903 234.556 63.9168 235.087 64.182C238.586 66.6744 240.787 69.0342 241.689 71.2614C242.166 72.375 242.06 73.5417 241.371 74.7614C240.84 75.7689 240.124 76.5644 239.223 77.1477C238.162 77.7841 237.208 77.8901 236.359 77.4659C235.564 77.0416 235.193 76.3788 235.246 75.4773ZM252.029 71.8182C251.234 68.5834 250.094 65.9054 248.609 63.7842C248.344 63.36 248.291 63.0153 248.45 62.7502C248.609 62.485 248.98 62.4055 249.564 62.5115C253.064 63.6782 255.476 65.057 256.802 66.6478C257.439 67.4433 257.624 68.4243 257.359 69.591C257.147 70.6516 256.696 71.5531 256.007 72.2955C255.211 73.144 254.389 73.4621 253.541 73.25C252.692 73.0909 252.189 72.6137 252.029 71.8182ZM258.95 61.7956H235.802C235.59 61.9547 235.378 62.1138 235.166 62.2729C234.477 63.0683 233.443 63.1744 232.064 62.5911C230.473 61.9017 228.962 60.8941 227.53 59.5684C228.007 59.1442 228.484 58.5343 228.962 57.7389C230.022 55.5116 230.765 52.0647 231.189 47.3981H226.734C226.522 55.3525 225.621 61.9017 224.03 67.0456C222.121 73.4091 218.7 78.2348 213.769 81.5226C213.238 81.8408 212.841 81.8673 212.575 81.6022C212.257 81.3901 212.284 80.9923 212.655 80.409C215.147 75.7954 216.791 69.538 217.587 61.6365C218.064 56.1745 218.329 50.0231 218.382 43.1823V31.8074C218.382 29.4741 218.25 26.5575 217.984 23.0575C221.113 23.5878 224.003 24.834 226.655 26.7961H239.541V26.637C239.17 24.9931 238.321 23.2962 236.996 21.5462C236.73 21.228 236.677 20.9363 236.837 20.6712C236.943 20.4591 237.367 20.3795 238.109 20.4326C242.192 20.5917 244.844 21.3606 246.064 22.7394C246.17 22.8454 246.276 22.978 246.382 23.1371C246.488 22.0765 246.567 20.9363 246.62 19.7167H235.882C235.882 20.5121 235.908 21.2545 235.962 21.9439C236.068 23.2696 235.405 24.1446 233.973 24.5689C232.117 25.2052 229.81 25.5234 227.053 25.5234C227.212 23.7734 227.344 21.8378 227.45 19.7167H222.678C221.246 19.7167 218.939 19.8227 215.757 20.0348C214.644 20.0879 213.848 19.5045 213.371 18.2849C213.053 17.3834 212.894 16.5349 212.894 15.7394C215.28 15.9516 218.541 16.0576 222.678 16.0576H227.45V14.069C227.397 12.213 227.185 10.3569 226.814 8.50091C230.632 8.50091 233.867 8.89863 236.518 9.69407C237.526 9.95922 238.03 10.3835 238.03 10.9668C238.03 11.391 237.658 11.7887 236.916 12.1599C236.227 12.5842 235.882 13.2205 235.882 14.069V16.0576H246.62V14.069C246.567 12.213 246.355 10.3569 245.984 8.50091C249.749 8.50091 252.958 8.89863 255.609 9.69407C256.67 9.95922 257.2 10.3835 257.2 10.9668C257.2 11.391 256.829 11.7887 256.086 12.1599C255.397 12.5842 255.052 13.2205 255.052 14.069V15.8985C259.082 15.4213 260.885 13.6183 260.461 10.4895C263.59 11.285 266.188 12.8493 268.257 15.1826C269.37 16.4553 269.927 17.4894 269.927 18.2849C269.927 19.2394 269.397 19.7167 268.336 19.7167H255.052C255.052 20.353 255.079 20.9629 255.132 21.5462C255.238 22.8719 254.575 23.7469 253.143 24.1711C251.446 24.7014 249.325 24.9931 246.78 25.0461C246.673 25.6295 246.355 26.2128 245.825 26.7961H253.461C257.81 26.7961 259.772 25.2583 259.348 22.1825C262.635 22.6598 265.366 24.0651 267.541 26.3984C268.442 27.3529 268.893 28.2544 268.893 29.1029C268.893 30.0044 268.283 30.4552 267.063 30.4552H252.825V34.2733H253.939C256.696 34.2733 257.995 33.3188 257.836 31.4097C261.177 31.887 264.014 33.0271 266.347 34.8301C266.878 35.3074 267.143 35.7581 267.143 36.1823C267.09 36.6066 266.825 36.9513 266.347 37.2164C265.764 37.5346 265.446 38.224 265.393 39.2846V42.5459C265.393 43.0232 265.446 43.5269 265.552 44.0572C265.605 45.489 264.81 46.5496 263.166 47.239C262.582 47.5042 261.973 47.7163 261.336 47.8754C263.139 48.6178 264.73 49.7049 266.109 51.1367C266.745 51.8261 267.063 52.5155 267.063 53.2048C267.063 54.0533 266.401 54.4776 265.075 54.4776H260.461C263.855 55.326 266.639 56.5987 268.813 58.2957C269.344 58.7729 269.582 59.2502 269.529 59.7275C269.476 60.2578 269.052 60.735 268.257 61.1593C267.514 61.5305 267.09 62.432 266.984 63.8638C266.772 69.2198 266.268 73.0909 265.472 75.4773C264.836 77.3333 263.696 78.659 262.052 79.4545C260.355 80.1439 258.579 80.462 256.723 80.409C255.874 80.462 255.344 80.0908 255.132 79.2954C255.026 78.1818 254.495 77.2538 253.541 76.5113C252.586 75.7159 251.101 75.0795 249.086 74.6023C248.768 74.4962 248.53 74.3636 248.37 74.2046C248.158 74.4167 247.946 74.6288 247.734 74.8409C246.886 75.6364 246.037 75.9015 245.189 75.6364C244.34 75.3712 243.863 74.8409 243.757 74.0455C243.121 70.2804 242.007 67.0721 240.416 64.4206C240.204 64.0494 240.177 63.7047 240.336 63.3865C240.549 63.1214 240.946 63.0949 241.53 63.307C245.295 65.057 247.814 66.8865 249.086 68.7955C249.67 69.7501 249.749 70.8902 249.325 72.2159C249.272 72.4811 249.192 72.7462 249.086 73.0114C251.261 73.3296 253.514 73.5152 255.848 73.5682C257.279 73.5682 258.128 72.4281 258.393 70.1478C258.764 67.7084 258.95 64.9244 258.95 61.7956ZM237.155 58.1366H255.529C258.287 58.1366 259.719 56.9169 259.825 54.4776H237.95C237.685 55.6972 237.42 56.9169 237.155 58.1366ZM257.439 47.3981H240.416C240.893 47.6102 241.132 47.9549 241.132 48.4322C241.079 48.8564 240.681 49.1746 239.939 49.3867C239.355 49.5988 238.958 50.0761 238.746 50.8185H253.859C256.988 50.8185 258.791 49.9435 259.268 48.1935C258.685 48.2466 258.075 48.2731 257.439 48.2731V47.3981ZM231.825 43.7391V37.9323H226.814V43.7391H231.825ZM239.78 37.9323V43.7391H244.87V37.9323H239.78ZM252.825 37.9323V43.7391H257.439V37.9323H252.825ZM239.78 34.2733H244.87V30.4552H239.78V34.2733ZM226.814 34.2733H231.825V30.4552H226.814V34.2733Z" fill="black"/>
</g>
<defs>
<clipPath id="clip0_472_518">
<rect width="274" height="95" fill="white"/>
</clipPath>
</defs>
</svg>
