<svg width="274" height="95" viewBox="0 0 274 95" fill="none" xmlns="http://www.w3.org/2000/svg">
<g clip-path="url(#clip0_472_526)">
<path d="M9.54532 75.7159C9.81047 71.4735 9.94305 67.2047 9.94305 62.9093V57.5798C9.89002 55.0344 9.78396 52.6215 9.62487 50.3412C12.5415 50.9246 15.2725 52.0382 17.8179 53.6821H27.6019V48.0345H24.1019C23.7307 48.7769 23.0414 49.3602 22.0338 49.7844C20.549 50.5269 18.5869 50.845 16.1475 50.739C16.2536 48.8299 16.3331 46.6557 16.3861 44.2163V36.421C16.3861 34.0877 16.3066 31.887 16.1475 29.8188C19.0111 30.19 21.6361 31.065 24.0224 32.4438H34.6018C37.6245 32.4438 39.0828 31.2771 38.9767 28.9438C42.6358 29.7393 45.6585 31.065 48.0448 32.921C48.469 33.2922 48.7342 33.6634 48.8402 34.0346C49.6887 31.8074 50.219 29.7923 50.4311 27.9893H13.2044C13.1513 30.9589 12.5945 33.3453 11.5339 35.1483C10.4203 37.1104 9.04154 37.9588 7.39763 37.6937C6.23098 37.5346 5.22341 36.8452 4.37494 35.6255C3.5795 34.5119 3.2348 33.4248 3.34086 32.3642C3.39389 30.8794 4.24237 29.4476 5.88628 28.0688C9.01503 25.6295 10.6855 23.2166 10.8976 20.8303C10.9506 20.247 11.1892 19.9288 11.6135 19.8758C12.0907 19.8758 12.3824 20.1409 12.4885 20.6712C12.7006 21.9439 12.8862 23.1636 13.0453 24.3302H17.977C17.7119 24.0121 17.4998 23.5878 17.3407 23.0575C16.3861 19.4515 15.0074 16.5084 13.2044 14.2281C12.8862 13.8039 12.8066 13.4592 12.9657 13.194C13.1779 12.9289 13.5756 12.8493 14.1589 12.9554C18.0831 13.8039 20.9997 15.1031 22.9088 16.8531C24.0224 17.9137 24.4732 19.1068 24.261 20.4326C23.9959 21.7053 23.386 22.8719 22.4315 23.9325C22.2724 24.0916 22.1398 24.2242 22.0338 24.3302H27.5224V17.0122C27.5224 13.4061 27.2837 10.5425 26.8065 8.42137C30.9428 8.42137 34.2306 8.79257 36.67 9.53499C37.6245 9.90619 38.1018 10.3569 38.1018 10.8872C38.1018 11.4175 37.7571 11.8683 37.0677 12.2395C36.2192 12.7698 35.795 13.5387 35.795 14.5463V24.3302H39.2154C40.8593 19.9818 42.0259 15.9516 42.7153 12.2395C46.1622 12.6107 49.0258 13.4857 51.3061 14.8645C52.0485 15.2887 52.3667 15.766 52.2606 16.2963C52.1016 16.7205 51.7304 16.9856 51.147 17.0917C50.4576 17.1978 49.9273 17.4894 49.5561 17.9667C47.1168 20.7242 44.8895 22.8454 42.8744 24.3302H46.1357C49.9539 24.3302 51.8099 22.925 51.7038 20.1144C55.628 21.4401 58.7568 23.3492 61.0901 25.8416C61.6204 26.3719 61.806 26.9022 61.6469 27.4325C61.4348 27.9628 60.931 28.2279 60.1355 28.2279C59.3931 28.2279 58.6507 28.4665 57.9083 28.9438C55.4159 31.4892 52.7909 33.6104 50.0334 35.3074C49.4501 35.6255 49.0524 35.6521 48.8402 35.3869C48.7342 35.3339 48.6812 35.2278 48.6812 35.0687C48.5221 35.2808 48.2834 35.4399 47.9653 35.546C47.1168 35.9172 46.666 36.5801 46.613 37.5346V42.705C46.613 43.7125 46.666 44.7201 46.7721 45.7277C46.9312 47.0534 46.0827 48.167 44.2267 49.0685C42.7418 49.7579 40.8328 50.1026 38.4995 50.1026V48.0345H36.0336V53.6821H40.9654C44.0941 53.6821 45.6585 52.3829 45.6585 49.7844C49.3175 50.6329 52.3402 52.0912 54.7265 54.1594C55.2038 54.5836 55.4159 55.0344 55.3629 55.5116C55.3099 56.0419 54.9386 56.4662 54.2493 56.7843C53.4538 57.1025 53.0296 58.004 52.9765 59.4888V64.2615C53.0826 65.2691 53.1622 66.0645 53.2152 66.6478C53.2682 69.1402 52.3667 70.9963 50.5107 72.2159C48.6546 73.4887 46.2948 74.0985 43.4312 74.0455C42.5828 73.9924 42.2115 73.6212 42.3176 72.9318C42.2646 71.7652 41.8934 70.7311 41.204 69.8296C40.4616 68.9281 39.1623 68.0531 37.3063 67.2047C36.829 66.9925 36.67 66.6478 36.829 66.1706C36.9881 65.7994 37.3593 65.6668 37.9427 65.7729C39.6926 65.985 41.3896 66.1175 43.0335 66.1706C44.0941 66.2766 44.6509 65.8259 44.7039 64.8183V57.3411H36.0336V66.4888C36.0336 69.2993 36.1131 72.2955 36.2722 75.4773C36.3783 77.7045 35.6889 79.2424 34.2041 80.0908C32.4011 81.1514 30.0147 81.6817 27.0451 81.6817C27.4163 77.6515 27.6019 72.5872 27.6019 66.4888V57.3411H18.2157V62.9093C18.2157 65.2426 18.3217 67.788 18.5338 70.5455C18.6399 72.5606 17.6589 73.9924 15.5907 74.8409C14.1059 75.4242 12.0907 75.7159 9.54532 75.7159ZM38.4995 36.1028H24.4997V44.3754H38.4995V36.1028ZM81.9152 47.5572V21.7053C81.9152 18.4174 81.7826 14.891 81.5174 11.1259C84.8583 11.7092 87.828 12.8493 90.4264 14.5463H108.165C111.771 14.5463 113.521 13.2471 113.415 10.6486C117.339 11.6031 120.441 13.141 122.721 15.2622C123.305 15.7925 123.517 16.3228 123.358 16.8531C123.358 17.2773 123.04 17.6485 122.403 17.9667C121.555 18.3909 121.104 19.2129 121.051 20.4326V38.9664C121.104 43.3148 121.21 47.7958 121.369 52.4094C121.475 53.9473 120.706 55.1935 119.062 56.148C117.525 57.0495 115.271 57.5002 112.301 57.5002V52.9662H111.585V68.2387C111.585 70.0417 112.381 71.0493 113.972 71.2614C115.775 71.4735 117.551 71.4735 119.301 71.2614C121.157 71.0493 122.377 69.7766 122.96 67.4433C123.596 64.7388 124.206 61.9282 124.79 59.0116C124.896 58.5343 125.161 58.2957 125.585 58.2957C126.062 58.2957 126.327 58.5343 126.38 59.0116C126.646 61.9812 126.911 64.6062 127.176 66.8865C127.441 69.1667 128.263 70.5985 129.642 71.1819C130.331 71.394 130.676 71.8182 130.676 72.4546C130.729 73.9924 130.225 75.3447 129.165 76.5113C127.998 77.8901 125.983 78.6856 123.119 78.8977C118.983 79.2689 114.847 79.2689 110.71 78.8977C105.672 78.4204 103.154 75.8485 103.154 71.1819V52.9662H100.767C100.449 60.7085 98.2218 67.0721 94.0854 72.0569C89.737 77.3068 82.8167 80.409 73.3244 81.3635C72.4759 81.5226 71.9986 81.3901 71.8926 80.9658C71.8395 80.5416 72.1047 80.1969 72.688 79.9318C79.4758 77.1742 84.381 73.4091 87.4037 68.6365C90.0552 64.3941 91.5135 59.1707 91.7787 52.9662H90.665V54.0798C90.665 55.6707 89.8696 56.8109 88.2787 57.5002C86.3696 58.3487 84.1424 58.7729 81.597 58.7729C81.8091 55.6442 81.9152 51.9056 81.9152 47.5572ZM112.301 40.6368H90.665V49.3072H112.301V40.6368ZM90.665 36.9778H112.301V29.5006H90.665V36.9778ZM112.301 18.2053H90.665V25.8416H112.301V18.2053ZM169.478 19.3985V29.5802C169.531 31.5423 169.611 33.5839 169.717 35.7051C169.823 37.1899 169.16 38.4096 167.728 39.3641C166.402 40.2656 164.44 40.7164 161.842 40.7164V36.8187H154.126V64.6592C154.126 69.644 154.179 73.3296 154.285 75.7159C154.391 77.7841 153.702 79.2689 152.217 80.1704C150.573 81.1779 148.372 81.7082 145.615 81.7613C145.986 77.9962 146.171 72.2955 146.171 64.6592V17.8871C146.118 15.5538 146.012 12.9819 145.853 10.1713C148.982 10.7016 151.846 12.0009 154.444 14.069H157.705C161.205 14.069 162.902 12.7698 162.796 10.1713C166.402 11.1789 169.213 12.6902 171.228 14.7054C171.705 15.2357 171.891 15.7394 171.785 16.2167C171.732 16.641 171.414 16.9856 170.83 17.2508C169.982 17.569 169.531 18.2849 169.478 19.3985ZM161.842 27.1938H154.126V33.1597H161.842V27.1938ZM161.842 17.7281H154.126V23.5348H161.842V17.7281ZM173.535 40.5573C173.747 37.4285 173.853 33.69 173.853 29.3415V21.228C173.853 17.9402 173.72 14.4137 173.455 10.6486C176.478 11.2319 179.156 12.3721 181.489 14.069H185.148C188.065 14.069 189.523 12.7168 189.523 10.0123C193.235 10.8077 196.284 12.2925 198.671 14.4667C199.307 14.997 199.599 15.5273 199.546 16.0576C199.546 16.5879 199.175 17.0652 198.432 17.4894C197.637 17.9137 197.212 18.7356 197.159 19.9553V57.023C197.159 60.629 197.292 65.3221 197.557 71.1023C197.61 73.9659 196.523 76.2992 194.296 78.1022C192.387 79.6931 190 80.462 187.137 80.409C186.076 80.303 185.519 79.8522 185.466 79.0568C185.466 77.678 184.83 76.4318 183.557 75.3182C182.656 74.5227 181.383 73.8068 179.739 73.1705C179.05 73.0114 178.758 72.6932 178.864 72.2159C178.97 71.7917 179.262 71.5796 179.739 71.5796C182.603 71.9508 184.883 72.1629 186.58 72.2159C188.012 72.1629 188.728 71.5531 188.728 70.3864V36.5005H181.489C181.277 37.7732 180.588 38.7013 179.421 39.2846C177.724 40.1331 175.762 40.5573 173.535 40.5573ZM181.489 23.3757H188.728V17.7281H181.489V23.3757ZM181.489 32.8415H188.728V27.0347H181.489V32.8415ZM159.535 71.1819C159.747 68.0531 159.853 64.3145 159.853 59.9661V53.0458C159.853 49.7579 159.721 46.2315 159.455 42.4664C162.531 43.0497 165.289 44.1898 167.728 45.8868H170.433C173.932 45.8868 175.656 44.5875 175.603 41.9891C179.262 42.9966 182.152 44.5345 184.273 46.6027C184.75 47.133 184.936 47.6367 184.83 48.114C184.777 48.4852 184.459 48.8299 183.876 49.1481C183.027 49.5193 182.576 50.2617 182.523 51.3753V60.1252C182.576 61.7691 182.656 63.4396 182.762 65.1365C182.868 66.6744 182.179 67.9206 180.694 68.8751C179.315 69.7766 177.273 70.2273 174.569 70.2273V65.8524H167.808V66.4888C167.808 68.0796 167.092 69.2198 165.66 69.9092C163.857 70.7576 161.815 71.1819 159.535 71.1819ZM167.808 49.5458V62.1934H174.569V49.5458H167.808ZM250.598 70.3864C260.09 71.0228 267.063 71.0758 271.518 70.5455C271.836 70.4925 272.022 70.6251 272.075 70.9432C272.181 71.2614 272.022 71.5531 271.597 71.8182C268.999 73.3561 267.488 75.4508 267.063 78.1022C266.957 78.8446 266.56 79.2159 265.87 79.2159C264.067 79.2159 259.904 78.9507 253.382 78.4204C244.791 77.7841 238.586 76.8826 234.768 75.7159C228.935 74.019 224.799 70.519 222.359 65.216C222.2 64.8979 222.041 64.5797 221.882 64.2615C221.723 65.11 221.537 65.9585 221.325 66.8069C219.894 72.5872 217.003 77.4659 212.655 81.4431C212.072 81.9204 211.647 82.0529 211.382 81.8408C211.064 81.6287 211.011 81.231 211.223 80.6477C213.45 75.0265 214.829 68.9281 215.36 62.3524C215.837 56.5722 215.916 51.773 215.598 47.9549C218.727 48.0079 221.537 48.4852 224.03 49.3867C225.037 49.7579 225.515 50.2087 225.462 50.739C225.462 51.2162 225.143 51.5874 224.507 51.8526C223.871 52.1177 223.526 52.648 223.473 53.4435C223.367 55.2465 223.155 57.1821 222.837 59.2502C223.685 60.629 224.64 61.8752 225.7 62.9888C225.965 63.2539 226.257 63.5456 226.575 63.8638V44.5345H219.575C218.515 44.5345 217.348 44.6406 216.075 44.8527C215.068 44.9587 214.325 44.4815 213.848 43.4209C213.424 42.5194 213.212 41.5648 213.212 40.5573C215.333 40.7694 217.454 40.8755 219.575 40.8755H230.95C233.177 40.8755 234.397 40.1861 234.609 38.8073C233.814 38.9134 232.939 38.9664 231.984 38.9664V35.7846H224.666C224.613 37.3755 223.818 38.4891 222.28 39.1255C220.795 39.8679 218.859 40.1861 216.473 40.08C216.579 38.171 216.659 35.9967 216.712 33.5574V18.3644C216.712 15.6599 216.632 13.088 216.473 10.6486C219.337 11.0198 221.935 11.8948 224.269 13.2736H228.087C231.109 13.2736 232.541 12.1069 232.382 9.77362C235.988 10.5691 238.931 11.8948 241.211 13.7508C241.318 13.8039 241.397 13.8834 241.45 13.9895C241.397 13.6713 241.371 13.3266 241.371 12.9554C243.492 13.1675 245.586 13.2736 247.655 13.2736H258.632C261.389 13.2736 262.635 12.1865 262.37 10.0123C264.279 10.3304 266.029 11.1524 267.62 12.4781C269.105 13.6978 269.847 14.7849 269.847 15.7394C269.847 16.5349 269.264 16.9326 268.097 16.9326H258.791C257.2 19.8492 255.264 22.3151 252.984 24.3302H255.291C258.738 24.3302 260.382 23.1901 260.223 20.9098C263.563 21.5992 266.321 22.8719 268.495 24.728C269.078 25.2052 269.344 25.6825 269.291 26.1598C269.238 26.6901 268.946 27.0613 268.416 27.2734C267.567 27.5916 267.116 28.2279 267.063 29.1824V45.0913C267.063 47.6367 267.143 50.1556 267.302 52.648C267.408 54.0798 266.798 55.273 265.472 56.2275C264.412 56.9699 262.927 57.4207 261.018 57.5798C263.829 58.6934 266.109 59.9926 267.859 61.4775C268.972 62.432 269.397 63.6252 269.132 65.057C268.76 66.7539 268.177 67.9471 267.382 68.6365C266.692 69.2728 265.923 69.538 265.075 69.4319C264.226 69.2728 263.563 68.6099 263.086 67.4433C261.548 64.0494 259.295 60.7881 256.325 57.6593C255.848 57.1821 255.715 56.7843 255.927 56.4662C256.086 56.201 256.537 56.1745 257.279 56.3866C258.022 56.5987 258.738 56.8109 259.427 57.023V54.8753H250.757C250.492 55.6177 250.094 56.2275 249.564 56.7048C251.473 57.129 253.143 57.7389 254.575 58.5343C255.264 58.9586 255.582 59.4093 255.529 59.8866C255.476 60.3108 255.132 60.576 254.495 60.682C253.753 60.8411 253.196 61.1328 252.825 61.557C249.643 64.9509 245.745 67.5759 241.132 69.4319C243.836 69.8031 246.992 70.1213 250.598 70.3864ZM243.598 49.5458V29.1029C243.545 26.0272 243.465 23.4287 243.359 21.3076C245.745 21.5727 247.973 22.3947 250.041 23.7734C250.465 21.4932 250.73 19.2129 250.836 16.9326H247.655C246.647 16.9326 245.507 17.0387 244.234 17.2508C243.227 17.3568 242.484 16.8796 242.007 15.819C242.007 15.766 241.98 15.7129 241.927 15.6599C241.768 15.925 241.503 16.1372 241.132 16.2963C240.283 16.6675 239.833 17.3303 239.78 18.2849V27.7506C239.78 30.0309 239.833 32.3112 239.939 34.5915C240.098 35.9702 239.276 37.0839 237.473 37.9323C237.208 38.0384 236.916 38.171 236.598 38.33C237.711 38.7013 238.746 39.3111 239.7 40.1596C241.185 41.3792 241.901 42.4398 241.848 43.3413C241.848 44.1368 241.291 44.5345 240.177 44.5345H234.371V53.8412C236.651 53.3109 237.658 51.7996 237.393 49.3072C238.454 49.6784 239.594 50.6859 240.814 52.3299C241.927 53.9207 242.458 55.273 242.405 56.3866C242.405 57.2881 241.954 57.7389 241.052 57.7389H234.371V68.1592C235.007 68.3713 235.67 68.5569 236.359 68.716C236.996 68.8221 237.685 68.9281 238.427 69.0342C238.533 68.9281 238.64 68.8221 238.746 68.716C242.882 64.6857 245.666 61.0797 247.098 57.898C245.931 58.2692 244.658 58.4813 243.28 58.5343C243.439 56.5192 243.545 53.523 243.598 49.5458ZM259.427 36.8187H250.916V42.3073H259.427V36.8187ZM259.427 45.9663H250.916V51.2162H259.427V45.9663ZM259.427 27.9893H250.916V33.1597H259.427V27.9893ZM231.984 26.4779H224.666V32.1256H231.984V26.4779ZM231.984 16.9326H224.666V22.8189H231.984V16.9326Z" fill="black"/>
</g>
<defs>
<clipPath id="clip0_472_526">
<rect width="274" height="95" fill="white"/>
</clipPath>
</defs>
</svg>
