<svg width="14" height="14" viewBox="0 0 14 14" fill="none" xmlns="http://www.w3.org/2000/svg">
<path d="M2.169 5.81277L0.610001 4.25177M5.135 3.89777L4.5 1.84277M11.831 5.81277L13.39 4.25277M8.865 3.89777L9.5 1.84277M7 3.62477C2.813 3.62477 1.055 7.39077 1.055 7.46877C1.055 7.54677 2.813 11.3118 7 11.3118C11.187 11.3118 12.945 7.54677 12.945 7.46877C12.945 7.39077 11.187 3.62477 7 3.62477Z" stroke="#876625" stroke-linecap="round" stroke-linejoin="round"/>
<path d="M5.306 7.08096C5.25186 7.30455 5.24265 7.53666 5.2789 7.76384C5.31515 7.99101 5.39615 8.20873 5.51718 8.40437C5.63822 8.6 5.79689 8.76966 5.98399 8.90351C6.1711 9.03735 6.38291 9.13272 6.60716 9.18408C6.8314 9.23545 7.06361 9.24178 7.29032 9.20271C7.51703 9.16365 7.73372 9.07996 7.92785 8.95651C8.12197 8.83306 8.28965 8.6723 8.42116 8.48355C8.55268 8.2948 8.64542 8.08182 8.694 7.85696C8.74813 7.63337 8.75734 7.40126 8.72109 7.17408C8.68484 6.9469 8.60385 6.72919 8.48281 6.53355C8.36177 6.33791 8.2031 6.16825 8.016 6.03441C7.82889 5.90056 7.61708 5.80519 7.39284 5.75383C7.16859 5.70247 6.93638 5.69614 6.70967 5.7352C6.48297 5.77427 6.26627 5.85795 6.07215 5.9814C5.87803 6.10485 5.71035 6.26562 5.57883 6.45437C5.44731 6.64311 5.35457 6.8561 5.306 7.08096Z" stroke="#876625" stroke-linecap="round" stroke-linejoin="round"/>
</svg>
